<svg style="max-height: 750px;" xmlns="http://www.w3.org/2000/svg" width="726.06" height="1069.47" viewBox="0 0 726.06 1069.47"><defs><style>.a{fill:none;stroke:#eef0f3;stroke-opacity:1;stroke-width:5;stroke-miterlimit:4;stroke-dasharray:none}.b{fill:#0c2e4e;}.c{fill:#eef0f3;}.d,.e,.f,.g{fill:none;stroke:#eef0f3;stroke-linecap:round;stroke-miterlimit:10;}.d,.e{stroke-width:1.25px;}.d{stroke-dasharray:6 4;}.f,.g{stroke-width:1.38px;}.g{stroke-dasharray:6.98 4.65;}</style></defs><title>PIV_WP_Concourse_1w2</title><rect class="a" x="30.55" y="549" width="500.28" height="400.36" rx="5" ry="5"></rect><rect class="b" x="316" y="823.06" width="180.48" height="45.45" rx="5" ry="5"></rect><path class="c" d="M332.42,846.81a3.38,3.38,0,0,1,3.33-3.54c2,0,3.25,1.6,3.25,3.63v.27h-5.48A2.38,2.38,0,0,0,336,849.5a3,3,0,0,0,2.09-.85l.5.69a3.68,3.68,0,0,1-2.69,1A3.35,3.35,0,0,1,332.42,846.81Zm3.32-2.68a2.26,2.26,0,0,0-2.21,2.25H338A2.19,2.19,0,0,0,335.74,844.14Z"></path><path class="c" d="M340.4,848.83l.69-.73a3.24,3.24,0,0,0,2.61,1.23c1.36,0,2.18-.67,2.18-1.75s-1-1.65-2.33-1.65c-.39,0-.83,0-1,0v-1.07c.15,0,.59,0,1,0,1.18,0,2.17-.46,2.17-1.54s-1-1.6-2.09-1.6a3.16,3.16,0,0,0-2.46,1.13l-.64-.73a4,4,0,0,1,3.19-1.44c1.79,0,3.17.91,3.17,2.49a2.28,2.28,0,0,1-2,2.17,2.35,2.35,0,0,1,2.16,2.3c0,1.55-1.25,2.69-3.31,2.69A3.94,3.94,0,0,1,340.4,848.83Z"></path><path class="c" d="M348.86,845.55c0-2.54,1.18-4.83,3.8-4.83a3.25,3.25,0,0,1,2.59,1.12l-.59.87a2.39,2.39,0,0,0-2-1c-1.81,0-2.63,1.83-2.63,3.67a3.24,3.24,0,0,0,0,.36,3.36,3.36,0,0,1,2.65-1.46,2.82,2.82,0,0,1,3.05,3,3.07,3.07,0,0,1-3.28,3.05C349.85,850.37,348.86,848.09,348.86,845.55Zm5.7,1.81a1.93,1.93,0,0,0-2.16-2,2.87,2.87,0,0,0-2.34,1.4c.11,1.16.73,2.59,2.35,2.59A2,2,0,0,0,354.56,847.36Z"></path><path class="c" d="M357.48,845.54c0-2.28,1-4.82,3.57-4.82s3.57,2.54,3.57,4.82-1,4.83-3.57,4.83S357.48,847.81,357.48,845.54Zm6,0c0-1.86-.6-3.78-2.38-3.78s-2.38,1.92-2.38,3.78.6,3.8,2.38,3.8S363.44,847.4,363.44,845.54Z"></path><path class="c" d="M366.61,848.87l.71-.77a3.07,3.07,0,0,0,2.58,1.23,2,2,0,0,0,2.16-2,2,2,0,0,0-2.14-2,2.93,2.93,0,0,0-2.16.88l-.85-.29v-5h5.71v1h-4.55v3.25a3.16,3.16,0,0,1,2.19-.84,2.86,2.86,0,0,1,3,3,3.06,3.06,0,0,1-3.32,3.08A3.81,3.81,0,0,1,366.61,848.87Z"></path><path class="c" d="M379.19,850.2v-2.37h-4.44v-1l4-6h1.6v6h1.32v1h-1.32v2.37Zm0-8.26-3.28,4.88h3.28Z"></path><path class="c" d="M383.19,847.83a2.77,2.77,0,0,1,2.23-2.45,2.45,2.45,0,0,1-2.07-2.24c0-1.68,1.64-2.42,3.19-2.42s3.21.74,3.21,2.42a2.47,2.47,0,0,1-2.09,2.24,2.77,2.77,0,0,1,2.23,2.45c0,1.58-1.51,2.54-3.35,2.54S383.19,849.43,383.19,847.83Zm5.52-.13c0-1.22-1.6-1.74-2.17-1.81s-2.19.59-2.19,1.81c0,1,1,1.63,2.19,1.63S388.71,848.72,388.71,847.71Zm-.14-4.41c0-1-.91-1.54-2-1.54s-2,.57-2,1.54c0,1.13,1.47,1.51,2,1.61C387.11,844.81,388.57,844.43,388.57,843.3Z"></path><path class="c" d="M391.66,845.54c0-2.28,1-4.82,3.57-4.82s3.57,2.54,3.57,4.82-1,4.83-3.57,4.83S391.66,847.81,391.66,845.54Zm6,0c0-1.86-.6-3.78-2.38-3.78s-2.38,1.92-2.38,3.78.6,3.8,2.38,3.8S397.61,847.4,397.61,845.54Z"></path><path class="c" d="M400.28,847.27v-.92h3.36v.92Z"></path><path class="c" d="M410.36,850.2v-1a2.85,2.85,0,0,1-2.28,1.18c-1.76,0-3-1.34-3-3.54s1.23-3.56,3-3.56a2.83,2.83,0,0,1,2.28,1.19v-3.6h1.05v9.34Zm0-1.83V845.3a2.54,2.54,0,0,0-2-1.09c-1.36,0-2.17,1.12-2.17,2.62s.81,2.61,2.17,2.61A2.52,2.52,0,0,0,410.36,848.37Z"></path><path class="c" d="M415.3,850.2v-7.8l-1.5,1.58-.7-.71,2.34-2.41h1v9.34Z"></path><path class="c" d="M418.66,850.2v-.92c3.36-2.65,5.18-4.2,5.18-5.81a1.75,1.75,0,0,0-1.95-1.71,3.12,3.12,0,0,0-2.54,1.18l-.71-.74a4,4,0,0,1,3.25-1.47c1.55,0,3.14.88,3.14,2.75s-1.93,3.64-4.54,5.7h4.58v1Z"></path><path class="c" d="M427.15,846.81a3.38,3.38,0,0,1,3.33-3.54c2,0,3.25,1.6,3.25,3.63v.27h-5.48a2.38,2.38,0,0,0,2.44,2.34,3,3,0,0,0,2.09-.85l.5.69a3.68,3.68,0,0,1-2.69,1A3.35,3.35,0,0,1,427.15,846.81Zm3.32-2.68a2.26,2.26,0,0,0-2.21,2.25h4.44A2.19,2.19,0,0,0,430.47,844.14Z"></path><path class="c" d="M435.14,847.27v-.92h3.36v.92Z"></path><path class="c" d="M440.87,850.34a.77.77,0,0,1-.76-.77.76.76,0,0,1,.76-.77.78.78,0,0,1,.77.77A.79.79,0,0,1,440.87,850.34Zm3.22,0a.77.77,0,0,1-.76-.77.76.76,0,0,1,.76-.77.79.79,0,0,1,.78.77A.8.8,0,0,1,444.09,850.34Zm3.24,0a.79.79,0,0,1-.77-.77.77.77,0,1,1,1.54,0A.79.79,0,0,1,447.33,850.34Z"></path><rect class="b" x="316" y="881.66" width="180.48" height="45.45" rx="5" ry="5"></rect><path class="c" d="M337.72,908.8v-1a2.85,2.85,0,0,1-2.28,1.18c-1.76,0-3-1.34-3-3.54s1.23-3.56,3-3.56a2.83,2.83,0,0,1,2.28,1.19v-3.6h1.05v9.34Zm0-1.83V903.9a2.54,2.54,0,0,0-2-1.09c-1.36,0-2.17,1.12-2.17,2.62s.81,2.61,2.17,2.61A2.52,2.52,0,0,0,337.72,907Z"></path><path class="c" d="M340.88,904.14c0-2.28,1-4.82,3.57-4.82s3.57,2.54,3.57,4.82-1,4.83-3.57,4.83S340.88,906.41,340.88,904.14Zm6,0c0-1.86-.6-3.78-2.38-3.78s-2.38,1.92-2.38,3.78.6,3.8,2.38,3.8S346.83,906,346.83,904.14Z"></path><path class="c" d="M349.49,907.43l.69-.73a3.24,3.24,0,0,0,2.61,1.23c1.36,0,2.18-.67,2.18-1.75s-1-1.65-2.33-1.65c-.39,0-.83,0-1,0v-1.07c.15,0,.59,0,1,0,1.18,0,2.17-.46,2.17-1.54s-1-1.6-2.09-1.6a3.16,3.16,0,0,0-2.46,1.13l-.64-.73a4,4,0,0,1,3.19-1.44c1.79,0,3.17.91,3.17,2.49a2.28,2.28,0,0,1-2,2.17,2.35,2.35,0,0,1,2.16,2.3c0,1.55-1.25,2.69-3.31,2.69A3.94,3.94,0,0,1,349.49,907.43Z"></path><path class="c" d="M357.95,904.14c0-2.28,1-4.82,3.57-4.82s3.57,2.54,3.57,4.82-1,4.83-3.57,4.83S357.95,906.41,357.95,904.14Zm6,0c0-1.86-.6-3.78-2.38-3.78s-2.38,1.92-2.38,3.78.6,3.8,2.38,3.8S363.9,906,363.9,904.14Z"></path><path class="c" d="M366.81,905.41a3.38,3.38,0,0,1,3.33-3.54c2,0,3.25,1.6,3.25,3.63v.27h-5.48a2.38,2.38,0,0,0,2.44,2.34,3,3,0,0,0,2.09-.85l.5.69a3.68,3.68,0,0,1-2.69,1A3.35,3.35,0,0,1,366.81,905.41Zm3.32-2.68a2.26,2.26,0,0,0-2.21,2.25h4.44A2.19,2.19,0,0,0,370.13,902.74Z"></path><path class="c" d="M379.66,908.8V908a2.93,2.93,0,0,1-2.24.94,2.25,2.25,0,0,1-2.37-2.24,2.22,2.22,0,0,1,2.37-2.23,2.83,2.83,0,0,1,2.24.92v-1.22c0-.91-.73-1.43-1.71-1.43a2.69,2.69,0,0,0-2.07.94l-.49-.73a3.54,3.54,0,0,1,2.7-1.12c1.43,0,2.62.64,2.62,2.28v4.65Zm0-1.43V906.1a2.27,2.27,0,0,0-1.86-.84,1.49,1.49,0,1,0,0,3A2.27,2.27,0,0,0,379.66,907.37Z"></path><path class="c" d="M387,908.8v-2.37h-4.44v-1l4-6h1.6v6h1.32v1h-1.32v2.37Zm0-8.26-3.28,4.88H387Z"></path><path class="c" d="M390.93,905.41a3.38,3.38,0,0,1,3.33-3.54c2,0,3.25,1.6,3.25,3.63v.27H392a2.38,2.38,0,0,0,2.44,2.34,3,3,0,0,0,2.09-.85l.5.69a3.68,3.68,0,0,1-2.69,1A3.35,3.35,0,0,1,390.93,905.41Zm3.32-2.68A2.26,2.26,0,0,0,392,905h4.44A2.19,2.19,0,0,0,394.25,902.74Z"></path><path class="c" d="M398.92,905.87V905h3.36v.92Z"></path><path class="c" d="M405.55,908.8V901l-1.5,1.58-.7-.71,2.34-2.41h1v9.34Z"></path><path class="c" d="M409.49,908.8V903h-1.12V902h1.12v-.52a1.93,1.93,0,0,1,2-2.2,2,2,0,0,1,1.43.52l-.43.69a1.23,1.23,0,0,0-.84-.34c-.69,0-1.06.48-1.06,1.33V902h1.37V903h-1.37v5.84Z"></path><path class="c" d="M415,908.8V901l-1.5,1.58-.7-.71,2.34-2.41h1v9.34Z"></path><path class="c" d="M422.45,908.8v-2.37H418v-1l4-6h1.6v6h1.32v1h-1.32v2.37Zm0-8.26-3.28,4.88h3.28Z"></path><path class="c" d="M427.32,908.94a.77.77,0,0,1-.76-.77.76.76,0,0,1,.76-.77.78.78,0,0,1,.77.77A.79.79,0,0,1,427.32,908.94Zm3.22,0a.77.77,0,0,1-.76-.77.76.76,0,0,1,.76-.77.79.79,0,0,1,.79.77A.8.8,0,0,1,430.54,908.94Zm3.24,0a.79.79,0,0,1-.77-.77.77.77,0,0,1,1.54,0A.79.79,0,0,1,433.77,908.94Z"></path><rect class="b" x="63.5" y="823.06" width="180.48" height="45.45" rx="5" ry="5"></rect><rect class="b" x="316" y="641.98" width="180.48" height="122.05" rx="5" ry="5"></rect><rect class="b" x="63.5" y="641.98" width="180.48" height="122.05" rx="5" ry="5"></rect><rect class="b" x="63.5" y="571.31" width="432.98" height="47.82" rx="5" ry="5"></rect><path class="c" d="M84.9,850.2v-4.45c0-1.19-.62-1.54-1.53-1.54a2.66,2.66,0,0,0-2,1.05v4.94H80.32v-9.34h1.05v3.56a3.36,3.36,0,0,1,2.42-1.15,1.9,1.9,0,0,1,2.16,2.16v4.78Z"></path><path class="c" d="M89.45,849.18v3.6H88.4v-9.34h1.05v1a2.83,2.83,0,0,1,2.28-1.18c1.78,0,3,1.34,3,3.54s-1.23,3.56-3,3.56A2.77,2.77,0,0,1,89.45,849.18Zm4.19-2.37c0-1.5-.81-2.61-2.17-2.61a2.5,2.5,0,0,0-2,1.08v3.05a2.51,2.51,0,0,0,2,1.09C92.82,849.43,93.63,848.31,93.63,846.81Z"></path><path class="c" d="M96.46,850.2v-.92c3.36-2.65,5.18-4.2,5.18-5.81a1.75,1.75,0,0,0-1.95-1.71,3.12,3.12,0,0,0-2.54,1.18l-.71-.74a4,4,0,0,1,3.25-1.47c1.55,0,3.14.88,3.14,2.75s-1.93,3.64-4.54,5.7h4.58v1Z"></path><path class="c" d="M106.39,849.18v3.6h-1.05v-9.34h1.05v1a2.83,2.83,0,0,1,2.28-1.18c1.78,0,3,1.34,3,3.54s-1.23,3.56-3,3.56A2.77,2.77,0,0,1,106.39,849.18Zm4.19-2.37c0-1.5-.81-2.61-2.17-2.61a2.5,2.5,0,0,0-2,1.08v3.05a2.51,2.51,0,0,0,2,1.09C109.76,849.43,110.57,848.31,110.57,846.81Z"></path><path class="c" d="M111.26,852.44l.38-.8a1.34,1.34,0,0,0,1,.43c.63,0,1.09-.36,1.09-1.22v-7.42h1.05v7.42a1.85,1.85,0,0,1-2,2.09A2.12,2.12,0,0,1,111.26,852.44Zm2.25-10.67a.71.71,0,1,1,1.42,0,.71.71,0,0,1-1.42,0Z"></path><path class="c" d="M115.4,852.44l.38-.8a1.34,1.34,0,0,0,1,.43c.63,0,1.09-.36,1.09-1.22v-7.42h1.05v7.42a1.85,1.85,0,0,1-2,2.09A2.12,2.12,0,0,1,115.4,852.44Zm2.25-10.67a.71.71,0,1,1,1.42,0,.71.71,0,0,1-1.42,0Z"></path><path class="c" d="M121,845.55c0-2.54,1.18-4.83,3.8-4.83a3.25,3.25,0,0,1,2.59,1.12l-.59.87a2.39,2.39,0,0,0-2-1c-1.81,0-2.63,1.83-2.63,3.67a3.24,3.24,0,0,0,0,.36,3.36,3.36,0,0,1,2.65-1.46,2.82,2.82,0,0,1,3.05,3,3.07,3.07,0,0,1-3.28,3.05C122,850.37,121,848.09,121,845.55Zm5.7,1.81a1.93,1.93,0,0,0-2.16-2,2.87,2.87,0,0,0-2.34,1.4c.11,1.16.73,2.59,2.35,2.59A2,2,0,0,0,126.7,847.36Z"></path><path class="c" d="M129.57,846.81a3.35,3.35,0,1,1,3.35,3.56A3.32,3.32,0,0,1,129.57,846.81Zm5.59,0a2.27,2.27,0,1,0-2.24,2.62A2.35,2.35,0,0,0,135.16,846.81Z"></path><path class="c" d="M139.76,850.2v-7.8l-1.5,1.58-.7-.71,2.34-2.41h1v9.34Z"></path><path class="c" d="M151.58,850.2v-4.59c0-.85-.38-1.4-1.25-1.4a2.36,2.36,0,0,0-1.79,1v5h-1.05v-4.59c0-.85-.36-1.4-1.25-1.4a2.36,2.36,0,0,0-1.78,1.05v4.94h-1.05v-6.77h1.05v1a2.92,2.92,0,0,1,2.18-1.15,1.74,1.74,0,0,1,1.82,1.26,2.85,2.85,0,0,1,2.27-1.26c1.23,0,1.89.69,1.89,2v4.89Z"></path><path class="c" d="M155.08,850.2v-9.34h1.05v9.34Z"></path><path class="c" d="M336,810.9l-4.19-10.68h2.13l3.23,8.64,3.23-8.64h2.13l-4.19,10.68Z"></path><path class="c" d="M342.58,807a4,4,0,1,1,4,4.07A3.87,3.87,0,0,1,342.58,807Zm6.21,0a2.26,2.26,0,1,0-2.24,2.58A2.32,2.32,0,0,0,348.79,807Z"></path><path class="c" d="M352.63,810.9V800.23h1.68V810.9Z"></path><path class="c" d="M362.1,810.9v-1a3.71,3.71,0,0,1-2.74,1.22,2.19,2.19,0,0,1-2.48-2.45v-5.47h1.68V808c0,1.2.61,1.57,1.55,1.57a2.57,2.57,0,0,0,2-1v-5.43h1.68v7.73Z"></path><path class="c" d="M375.83,810.9v-5c0-.83-.37-1.39-1.26-1.39a2.35,2.35,0,0,0-1.79,1v5.41H371.1v-5c0-.83-.37-1.39-1.28-1.39a2.34,2.34,0,0,0-1.78,1v5.39h-1.68v-7.73H368v1.06a3.33,3.33,0,0,1,2.51-1.25,2,2,0,0,1,2.11,1.42,3.28,3.28,0,0,1,2.63-1.42,2,2,0,0,1,2.22,2.34v5.59Z"></path><path class="c" d="M379.61,807a3.91,3.91,0,0,1,3.92-4c2.32,0,3.81,1.78,3.81,4.21v.4h-6a2.34,2.34,0,0,0,2.46,2.13,3.27,3.27,0,0,0,2.19-.85l.77,1.1a4.51,4.51,0,0,1-3.14,1.12A3.89,3.89,0,0,1,379.61,807Zm3.92-2.67a2.13,2.13,0,0,0-2.18,2h4.35A2.07,2.07,0,0,0,383.53,804.36Z"></path><path class="c" d="M388.73,809.9l.77-1.22a4,4,0,0,0,2.63,1.09c1,0,1.52-.43,1.52-1,0-1.52-4.67-.43-4.67-3.39,0-1.26,1.09-2.35,3-2.35a4.42,4.42,0,0,1,3,1.09l-.71,1.18a3.12,3.12,0,0,0-2.29-.93c-.88,0-1.44.4-1.44.94,0,1.38,4.67.35,4.67,3.43,0,1.36-1.14,2.4-3.22,2.4A4.7,4.7,0,0,1,388.73,809.9Z"></path><path class="c" d="M79.92,805.57a5.39,5.39,0,0,1,5.6-5.52,4.82,4.82,0,0,1,4.29,2.4l-1.6.82a3.17,3.17,0,0,0-2.69-1.55,3.86,3.86,0,0,0,0,7.71,3.13,3.13,0,0,0,2.69-1.55l1.6.82a4.85,4.85,0,0,1-4.29,2.4A5.39,5.39,0,0,1,79.92,805.57Z"></path><path class="c" d="M91.19,807a4,4,0,1,1,4,4.07A3.87,3.87,0,0,1,91.19,807Zm6.21,0a2.26,2.26,0,1,0-2.24,2.58A2.32,2.32,0,0,0,97.4,807Z"></path><path class="c" d="M106.45,810.9v-4.83c0-1.2-.61-1.6-1.55-1.6a2.54,2.54,0,0,0-2,1v5.39h-1.68v-7.73h1.68v1.06a3.65,3.65,0,0,1,2.72-1.25,2.23,2.23,0,0,1,2.5,2.48v5.44Z"></path><path class="c" d="M111,809.11v-4.47h-1.28v-1.47H111v-2.11h1.68v2.11h1.57v1.47h-1.57v4c0,.53.26.91.74.91a1.09,1.09,0,0,0,.75-.27l.4,1.26a2.22,2.22,0,0,1-1.58.5A1.78,1.78,0,0,1,111,809.11Z"></path><path class="c" d="M120.93,810.9v-.83a3.26,3.26,0,0,1-2.5,1,2.57,2.57,0,0,1-2.69-2.56,2.49,2.49,0,0,1,2.69-2.51,3.2,3.2,0,0,1,2.5,1v-1.15c0-.9-.74-1.44-1.81-1.44a3.17,3.17,0,0,0-2.29,1l-.69-1.17A4.6,4.6,0,0,1,119.4,803c1.71,0,3.22.72,3.22,2.8v5.12Zm0-1.76V808a2.26,2.26,0,0,0-1.84-.8,1.41,1.41,0,1,0,0,2.77A2.26,2.26,0,0,0,120.93,809.14Z"></path><path class="c" d="M125,801.19a1,1,0,0,1,1-1,1,1,0,1,1,0,2.08A1,1,0,0,1,125,801.19Zm.21,9.72v-7.73h1.68v7.73Z"></path><path class="c" d="M134.66,810.9v-4.83c0-1.2-.61-1.6-1.55-1.6a2.54,2.54,0,0,0-2,1v5.39h-1.68v-7.73h1.68v1.06a3.65,3.65,0,0,1,2.72-1.25,2.23,2.23,0,0,1,2.5,2.48v5.44Z"></path><path class="c" d="M138.43,807a3.91,3.91,0,0,1,3.92-4c2.32,0,3.81,1.78,3.81,4.21v.4h-6a2.34,2.34,0,0,0,2.46,2.13,3.27,3.27,0,0,0,2.19-.85l.77,1.1a4.51,4.51,0,0,1-3.14,1.12A3.89,3.89,0,0,1,138.43,807Zm3.92-2.67a2.13,2.13,0,0,0-2.18,2h4.35A2.07,2.07,0,0,0,142.35,804.36Z"></path><path class="c" d="M148.23,810.9v-7.73h1.68v1.14a3.3,3.3,0,0,1,2.51-1.31v1.67a2.46,2.46,0,0,0-.53,0,2.67,2.67,0,0,0-2,1v5.27Z"></path><path class="c" d="M153.5,809.9l.77-1.22a4,4,0,0,0,2.63,1.09c1,0,1.52-.43,1.52-1,0-1.52-4.67-.43-4.67-3.39,0-1.26,1.09-2.35,3-2.35a4.42,4.42,0,0,1,3,1.09l-.71,1.18a3.12,3.12,0,0,0-2.29-.93c-.88,0-1.44.4-1.44.94,0,1.38,4.67.35,4.67,3.43,0,1.36-1.14,2.4-3.22,2.4A4.7,4.7,0,0,1,153.5,809.9Z"></path><path class="c" d="M111.71,686a7.4,7.4,0,0,1,7.7-7.59,6.9,6.9,0,0,1,5.92,3.06l-2.11,1.19a4.67,4.67,0,0,0-3.81-2,5.32,5.32,0,0,0,0,10.63,5.38,5.38,0,0,0,3.48-1.32V687.7h-4.38v-2.27h7v5.5a8,8,0,0,1-6.05,2.66A7.42,7.42,0,0,1,111.71,686Z"></path><path class="c" d="M135.12,693.31v-1.14a4.49,4.49,0,0,1-3.43,1.41,3.53,3.53,0,0,1-3.7-3.52,3.42,3.42,0,0,1,3.7-3.45,4.39,4.39,0,0,1,3.43,1.36v-1.58c0-1.23-1-2-2.49-2a4.35,4.35,0,0,0-3.15,1.34l-.95-1.61a6.32,6.32,0,0,1,4.47-1.72c2.35,0,4.42,1,4.42,3.85v7Zm0-2.42v-1.61a3.11,3.11,0,0,0-2.53-1.1,1.93,1.93,0,1,0,0,3.81A3.11,3.11,0,0,0,135.12,690.89Z"></path><path class="c" d="M141,693.31V682.68h2.31v1.56a4.54,4.54,0,0,1,3.45-1.8v2.29a3.4,3.4,0,0,0-.73-.07,3.67,3.67,0,0,0-2.73,1.41v7.24Z"></path><path class="c" d="M156.64,693.31v-1.45a4.31,4.31,0,0,1-3.41,1.72c-2.73,0-4.73-2.07-4.73-5.57s2-5.59,4.73-5.59a4.27,4.27,0,0,1,3.41,1.74v-5.52h2.31v14.68Zm0-3.19V685.9a3.49,3.49,0,0,0-2.75-1.43c-1.83,0-3,1.47-3,3.54s1.17,3.52,3,3.52A3.47,3.47,0,0,0,156.64,690.12Z"></path><path class="c" d="M161.83,688a5.37,5.37,0,0,1,5.39-5.57c3.19,0,5.24,2.44,5.24,5.79v.55h-8.21a3.22,3.22,0,0,0,3.39,2.93,4.5,4.5,0,0,0,3-1.17l1.06,1.52a6.19,6.19,0,0,1-4.31,1.54A5.34,5.34,0,0,1,161.83,688Zm5.39-3.67a2.93,2.93,0,0,0-3,2.82h6A2.84,2.84,0,0,0,167.22,684.31Z"></path><path class="c" d="M182.47,693.31v-6.64c0-1.65-.84-2.2-2.13-2.2a3.5,3.5,0,0,0-2.73,1.43v7.42h-2.31V682.68h2.31v1.45a5,5,0,0,1,3.74-1.72c2.29,0,3.43,1.23,3.43,3.41v7.48Z"></path><path class="c" d="M122.88,701.81a4,4,0,0,1,3.81,2.2l-1.11.43a2.93,2.93,0,0,0-2.77-1.6,4.21,4.21,0,0,0-4,4.48,3,3,0,0,0,3.15,3.11,3.69,3.69,0,0,0,2.51-1.06l.85.64a4.67,4.67,0,0,1-3.43,1.46,4,4,0,0,1-4.31-4.09A5.36,5.36,0,0,1,122.88,701.81Z"></path><path class="c" d="M130.92,704.38a2.86,2.86,0,0,1,3.1,3,4,4,0,0,1-3.77,4.09,2.84,2.84,0,0,1-3.1-3A4,4,0,0,1,130.92,704.38Zm0,.94a2.93,2.93,0,0,0-2.63,3.12,1.91,1.91,0,0,0,2,2.1,2.93,2.93,0,0,0,2.63-3.12A1.91,1.91,0,0,0,130.9,705.32Z"></path><path class="c" d="M140.79,706.87a2.25,2.25,0,0,0,.08-.46c0-.79-.6-1.09-1.33-1.09a3.14,3.14,0,0,0-2.16,1.06l-1.09,4.93h-1.05l1.5-6.77h1.05l-.22,1a3.64,3.64,0,0,1,2.4-1.15c1.19,0,2,.59,2,1.68a2.73,2.73,0,0,1-.08.56l-1,4.69h-1.05Z"></path><path class="c" d="M143.84,709.85l1-4.4H143.7l.21-.91H145l.41-1.85h1.05l-.41,1.85h1.37l-.21.91h-1.37l-.92,4.17a1.76,1.76,0,0,0,0,.28c0,.41.22.63.67.63a1,1,0,0,0,.64-.22l.13.84a1.68,1.68,0,0,1-1,.32c-.94,0-1.54-.39-1.54-1.23A2.59,2.59,0,0,1,143.84,709.85Z"></path><path class="c" d="M154.18,704.55h1.05l-1.5,6.77h-1l.21-1a2.81,2.81,0,0,1-2.23,1.13,2.52,2.52,0,0,1-2.62-2.79c0-2.2,1.36-4.31,3.54-4.31a2.68,2.68,0,0,1,2.35,1.23Zm-3.14,6a2.62,2.62,0,0,0,2.06-1.15l.67-3a2.29,2.29,0,0,0-2-1.09c-1.54,0-2.58,1.55-2.58,3.18A1.85,1.85,0,0,0,151,710.54Z"></path><path class="c" d="M157.68,704.55h1.05l-1.5,6.77h-1.05Zm1-2.55a.63.63,0,0,1,.64.62.81.81,0,0,1-.8.8.63.63,0,0,1-.64-.62A.81.81,0,0,1,158.67,702Z"></path><path class="c" d="M165.22,706.87a2.25,2.25,0,0,0,.08-.46c0-.79-.6-1.09-1.33-1.09a3.14,3.14,0,0,0-2.16,1.06l-1.09,4.93h-1.05l1.5-6.77h1.05l-.22,1a3.64,3.64,0,0,1,2.4-1.15c1.19,0,2,.59,2,1.68a2.73,2.73,0,0,1-.08.56l-1,4.69h-1.05Z"></path><path class="c" d="M171.82,704.38a2.78,2.78,0,0,1,2.91,3,5.21,5.21,0,0,1-.11.94H169.1c0,.06,0,.22,0,.32a2.06,2.06,0,0,0,2.3,2,3.23,3.23,0,0,0,1.95-.66l.35.73a4,4,0,0,1-2.37.8c-2.06,0-3.31-1.19-3.31-3A4,4,0,0,1,171.82,704.38Zm2,2.86a1.89,1.89,0,0,0-2.06-2,2.68,2.68,0,0,0-2.51,2.25h4.54A1.57,1.57,0,0,0,173.78,707.24Z"></path><path class="c" d="M177.47,704.55h1.05l-.24,1a3,3,0,0,1,2.52-1.18l-.24,1.08a2.07,2.07,0,0,0-.53-.06,2.64,2.64,0,0,0-2,1.11L177,711.31H176Z"></path><path class="c" d="M103.1,719.37l-4.93,7.94h-.48l-1.43-7.94-1.74,7.94H93.37L95.43,718H97l1.3,7.28,4.51-7.28h1.72l-2.06,9.34h-1.16Z"></path><path class="c" d="M111.4,720.55h1.05l-1.5,6.77h-1l.21-1a2.81,2.81,0,0,1-2.23,1.13,2.52,2.52,0,0,1-2.62-2.79c0-2.2,1.36-4.31,3.54-4.31a2.68,2.68,0,0,1,2.35,1.23Zm-3.14,6a2.62,2.62,0,0,0,2.06-1.15l.67-3a2.29,2.29,0,0,0-2-1.09c-1.54,0-2.58,1.55-2.58,3.18A1.85,1.85,0,0,0,108.26,726.54Z"></path><path class="c" d="M118.95,722.87a2.25,2.25,0,0,0,.08-.46c0-.79-.6-1.09-1.33-1.09a3.14,3.14,0,0,0-2.16,1.06l-1.09,4.93H113.4l1.5-6.77H116l-.22,1a3.64,3.64,0,0,1,2.4-1.15c1.19,0,2,.59,2,1.68a2.66,2.66,0,0,1-.08.56l-1,4.69H118Z"></path><path class="c" d="M127.87,720.55h1.05l-1.5,6.77h-1l.21-1a2.81,2.81,0,0,1-2.23,1.13,2.52,2.52,0,0,1-2.62-2.79c0-2.2,1.36-4.31,3.54-4.31a2.68,2.68,0,0,1,2.35,1.23Zm-3.14,6a2.62,2.62,0,0,0,2.06-1.15l.67-3a2.29,2.29,0,0,0-2-1.09c-1.54,0-2.58,1.55-2.58,3.18A1.85,1.85,0,0,0,124.73,726.54Z"></path><path class="c" d="M130.19,728.19a2.7,2.7,0,0,0,2.34,1c1,0,1.92-.52,2.27-2.07l.2-.88a2.91,2.91,0,0,1-2.3,1.15,2.49,2.49,0,0,1-2.58-2.8c0-2.13,1.34-4.2,3.53-4.2a3,3,0,0,1,2.37,1.23l.24-1.06h1.05l-1.46,6.57c-.49,2.23-1.85,2.94-3.31,2.94a3.59,3.59,0,0,1-3-1.15Zm5.65-5.76a2.38,2.38,0,0,0-2.1-1.12c-1.54,0-2.51,1.54-2.51,3.1a1.83,1.83,0,0,0,1.89,2,2.89,2.89,0,0,0,2.07-1.08Z"></path><path class="c" d="M142.33,720.38a2.78,2.78,0,0,1,2.91,3,5.21,5.21,0,0,1-.11.94h-5.52c0,.06,0,.22,0,.32a2.06,2.06,0,0,0,2.3,2,3.23,3.23,0,0,0,1.95-.66l.35.73a4,4,0,0,1-2.37.8c-2.06,0-3.31-1.19-3.31-3A4,4,0,0,1,142.33,720.38Zm2,2.86a1.89,1.89,0,0,0-2.06-2,2.68,2.68,0,0,0-2.51,2.25h4.54A1.57,1.57,0,0,0,144.29,723.24Z"></path><path class="c" d="M155.64,722.77a2,2,0,0,0,.06-.41,1.06,1.06,0,0,0-1.15-1.05,2.74,2.74,0,0,0-1.85,1.06l-1.09,4.93h-1.05l1-4.54a2.6,2.6,0,0,0,.06-.49c0-.53-.41-1-1.18-1a2.76,2.76,0,0,0-1.82,1.06l-1.09,4.93h-1.05l1.5-6.77H149l-.22,1a3,3,0,0,1,2.13-1.15,1.61,1.61,0,0,1,1.74,1.25v0a3.2,3.2,0,0,1,2.35-1.29,1.66,1.66,0,0,1,1.78,1.68,4,4,0,0,1-.07.56l-1,4.69h-1Z"></path><path class="c" d="M162.22,720.38a2.78,2.78,0,0,1,2.91,3,5.21,5.21,0,0,1-.11.94H159.5c0,.06,0,.22,0,.32a2.06,2.06,0,0,0,2.3,2,3.23,3.23,0,0,0,1.95-.66l.35.73a4,4,0,0,1-2.37.8c-2.06,0-3.31-1.19-3.31-3A4,4,0,0,1,162.22,720.38Zm2,2.86a1.89,1.89,0,0,0-2.06-2,2.68,2.68,0,0,0-2.51,2.25h4.54A1.57,1.57,0,0,0,164.18,723.24Z"></path><path class="c" d="M171.92,722.87a2.25,2.25,0,0,0,.08-.46c0-.79-.6-1.09-1.33-1.09a3.14,3.14,0,0,0-2.16,1.06l-1.09,4.93h-1.05l1.5-6.77h1.05l-.22,1a3.64,3.64,0,0,1,2.4-1.15c1.19,0,2,.59,2,1.68a2.66,2.66,0,0,1-.08.56l-1,4.69h-1.05Z"></path><path class="c" d="M175,725.85l1-4.4h-1.12l.21-.91h1.12l.41-1.85h1.05l-.41,1.85h1.37l-.21.91H177l-.92,4.17a1.76,1.76,0,0,0,0,.28c0,.41.22.63.67.63a1,1,0,0,0,.64-.22l.13.84a1.68,1.68,0,0,1-1,.32c-.94,0-1.54-.39-1.54-1.23A2.59,2.59,0,0,1,175,725.85Z"></path><path class="c" d="M189.31,725.24h-4.75l-1.27,2.07h-1.34l5.81-9.34h1.44l1.71,9.34h-1.23Zm-4.16-1h4l-.9-5.16Z"></path><path class="c" d="M194.53,718H198a2.42,2.42,0,0,1,2.59,2.42A3.22,3.22,0,0,1,197,723.6h-2.58l-.81,3.71h-1.16Zm4.85,2.51a1.49,1.49,0,0,0-1.55-1.47h-2.35l-.8,3.56h2.45A2.06,2.06,0,0,0,199.38,720.48Z"></path><path class="c" d="M203.1,718h1.16l-2.06,9.34H201Z"></path><path class="c" d="M243,601.3V586.62h7.22c2.68,0,4.18,1.67,4.18,3.74a3.3,3.3,0,0,1-2.55,3.37,3.61,3.61,0,0,1,2.84,3.61c0,2.27-1.52,4-4.27,4Zm8.76-10.5a1.87,1.87,0,0,0-2.07-1.92h-4.11v3.81h4.11A1.85,1.85,0,0,0,251.78,590.8Zm.29,6.18a2,2,0,0,0-2.24-2h-4.22V599h4.22A2,2,0,0,0,252.06,597Z"></path><path class="c" d="M257.1,596a5.37,5.37,0,0,1,5.39-5.57c3.19,0,5.24,2.44,5.24,5.79v.55h-8.21a3.22,3.22,0,0,0,3.39,2.93,4.5,4.5,0,0,0,3-1.17L267,600a6.19,6.19,0,0,1-4.31,1.54A5.34,5.34,0,0,1,257.1,596Zm5.39-3.67a2.93,2.93,0,0,0-3,2.82h6A2.84,2.84,0,0,0,262.49,592.3Z"></path><path class="c" d="M277.05,601.3v-1.14a4.49,4.49,0,0,1-3.43,1.41,3.53,3.53,0,0,1-3.7-3.52,3.42,3.42,0,0,1,3.7-3.45,4.39,4.39,0,0,1,3.43,1.36v-1.58c0-1.23-1-2-2.49-2a4.35,4.35,0,0,0-3.15,1.34l-.95-1.61a6.32,6.32,0,0,1,4.47-1.72c2.35,0,4.42,1,4.42,3.85v7Zm0-2.42v-1.61a3.11,3.11,0,0,0-2.53-1.1,1.93,1.93,0,1,0,0,3.81A3.11,3.11,0,0,0,277.05,598.88Z"></path><path class="c" d="M282.25,596a5.33,5.33,0,0,1,5.5-5.57,4.76,4.76,0,0,1,4.07,1.89l-1.52,1.41a2.84,2.84,0,0,0-2.44-1.25,3.55,3.55,0,0,0,0,7.06,2.89,2.89,0,0,0,2.44-1.25l1.52,1.41a4.77,4.77,0,0,1-4.07,1.89A5.34,5.34,0,0,1,282.25,596Z"></path><path class="c" d="M293.73,596a5.47,5.47,0,1,1,5.46,5.59A5.32,5.32,0,0,1,293.73,596Zm8.54,0c0-1.87-1.1-3.52-3.08-3.52s-3.06,1.65-3.06,3.52,1.1,3.54,3.06,3.54S302.27,597.87,302.27,596Z"></path><path class="c" d="M314.72,601.3v-6.64c0-1.65-.84-2.2-2.13-2.2a3.5,3.5,0,0,0-2.73,1.43v7.42h-2.31V590.67h2.31v1.45a5,5,0,0,1,3.74-1.72c2.29,0,3.43,1.23,3.43,3.41v7.48Z"></path><rect class="b" x="63.5" y="89.75" width="432.98" height="47.82" rx="5" ry="5"></rect><path class="c" d="M208.1,119.74V105.06h2.57v12.41h6.47v2.27Z"></path><path class="c" d="M219,114.41a5.47,5.47,0,1,1,5.46,5.59A5.32,5.32,0,0,1,219,114.41Zm8.54,0c0-1.87-1.1-3.52-3.08-3.52s-3.06,1.65-3.06,3.52,1.1,3.54,3.06,3.54S227.5,116.31,227.5,114.41Z"></path><path class="c" d="M239.27,119.74V118.6a4.49,4.49,0,0,1-3.43,1.41,3.53,3.53,0,0,1-3.7-3.52,3.42,3.42,0,0,1,3.7-3.45,4.39,4.39,0,0,1,3.43,1.36v-1.58c0-1.23-1-2-2.49-2a4.35,4.35,0,0,0-3.15,1.34l-.95-1.61a6.32,6.32,0,0,1,4.47-1.72c2.35,0,4.42,1,4.42,3.85v7Zm0-2.42v-1.61a3.11,3.11,0,0,0-2.53-1.1,1.93,1.93,0,1,0,0,3.81A3.11,3.11,0,0,0,239.27,117.32Z"></path><path class="c" d="M252.6,119.74v-1.45a4.31,4.31,0,0,1-3.41,1.72c-2.73,0-4.73-2.07-4.73-5.57s2-5.59,4.73-5.59a4.27,4.27,0,0,1,3.41,1.74v-5.52h2.31v14.68Zm0-3.19v-4.22a3.49,3.49,0,0,0-2.75-1.43c-1.83,0-3,1.47-3,3.54s1.17,3.52,3,3.52A3.47,3.47,0,0,0,252.6,116.55Z"></path><path class="c" d="M264.72,119.74V105.06h7.22c2.68,0,4.18,1.67,4.18,3.74a3.3,3.3,0,0,1-2.55,3.37,3.61,3.61,0,0,1,2.84,3.61c0,2.27-1.52,4-4.27,4Zm8.76-10.5a1.87,1.87,0,0,0-2.07-1.92H267.3v3.81h4.11A1.85,1.85,0,0,0,273.48,109.24Zm.29,6.18a2,2,0,0,0-2.24-2H267.3v4.07h4.22A2,2,0,0,0,273.77,115.43Z"></path><path class="c" d="M286,119.74V118.6a4.49,4.49,0,0,1-3.43,1.41,3.53,3.53,0,0,1-3.7-3.52,3.42,3.42,0,0,1,3.7-3.45,4.39,4.39,0,0,1,3.43,1.36v-1.58c0-1.23-1-2-2.49-2a4.35,4.35,0,0,0-3.15,1.34l-.95-1.61a6.32,6.32,0,0,1,4.47-1.72c2.35,0,4.42,1,4.42,3.85v7Zm0-2.42v-1.61a3.11,3.11,0,0,0-2.53-1.1,1.93,1.93,0,1,0,0,3.81A3.11,3.11,0,0,0,286,117.32Z"></path><path class="c" d="M291.8,119.74V105.06h2.31v14.68Z"></path><path class="c" d="M304.15,119.74V118.6a4.49,4.49,0,0,1-3.43,1.41,3.53,3.53,0,0,1-3.7-3.52,3.42,3.42,0,0,1,3.7-3.45,4.39,4.39,0,0,1,3.43,1.36v-1.58c0-1.23-1-2-2.49-2a4.35,4.35,0,0,0-3.15,1.34l-.95-1.61a6.32,6.32,0,0,1,4.47-1.72c2.35,0,4.42,1,4.42,3.85v7Zm0-2.42v-1.61a3.11,3.11,0,0,0-2.53-1.1,1.93,1.93,0,1,0,0,3.81A3.11,3.11,0,0,0,304.15,117.32Z"></path><path class="c" d="M317.17,119.74V113.1c0-1.65-.84-2.2-2.13-2.2a3.5,3.5,0,0,0-2.73,1.43v7.42H310V109.11h2.31v1.45a5,5,0,0,1,3.74-1.72c2.29,0,3.43,1.23,3.43,3.41v7.48Z"></path><path class="c" d="M322.36,114.41a5.33,5.33,0,0,1,5.5-5.57,4.76,4.76,0,0,1,4.07,1.89l-1.52,1.41a2.84,2.84,0,0,0-2.44-1.25,3.55,3.55,0,0,0,0,7.06,2.89,2.89,0,0,0,2.44-1.25l1.52,1.41a4.77,4.77,0,0,1-4.07,1.89A5.34,5.34,0,0,1,322.36,114.41Z"></path><path class="c" d="M333.85,114.41a5.37,5.37,0,0,1,5.39-5.57c3.19,0,5.24,2.44,5.24,5.79v.55h-8.21a3.22,3.22,0,0,0,3.39,2.93,4.5,4.5,0,0,0,3-1.17l1.06,1.52a6.19,6.19,0,0,1-4.31,1.54A5.34,5.34,0,0,1,333.85,114.41Zm5.39-3.67a2.93,2.93,0,0,0-3,2.82h6A2.84,2.84,0,0,0,339.24,110.74Z"></path><path class="c" d="M347.31,119.74V109.11h2.31v1.56a4.54,4.54,0,0,1,3.45-1.8v2.29a3.4,3.4,0,0,0-.73-.07,3.67,3.67,0,0,0-2.73,1.41v7.24Z"></path><path class="c" d="M18.28,456.18v-9.34H22a2.82,2.82,0,1,1,0,5.63H19.44v3.71Zm5.48-6.53a1.74,1.74,0,0,0-1.86-1.78H19.44v3.56H21.9A1.74,1.74,0,0,0,23.76,449.65Z"></path><path class="c" d="M26.23,452.79a3.35,3.35,0,1,1,3.35,3.56A3.32,3.32,0,0,1,26.23,452.79Zm5.59,0a2.27,2.27,0,1,0-2.24,2.62A2.35,2.35,0,0,0,31.82,452.79Z"></path><path class="c" d="M34.4,455.28l.55-.76a3.06,3.06,0,0,0,2.23,1c1,0,1.6-.49,1.6-1.16,0-1.64-4.19-.63-4.19-3.14,0-1.05.91-1.95,2.52-1.95a3.42,3.42,0,0,1,2.51,1l-.49.73a2.64,2.64,0,0,0-2-.85c-.92,0-1.5.46-1.5,1.06,0,1.48,4.19.5,4.19,3.14,0,1.13-.91,2-2.66,2A3.6,3.6,0,0,1,34.4,455.28Z"></path><path class="c" d="M42.05,454.76v-4.43H40.93v-.92h1.12v-1.85H43.1v1.85h1.37v.92H43.1v4.2c0,.5.22.87.69.87a1,1,0,0,0,.71-.28l.31.78a1.72,1.72,0,0,1-1.26.43A1.38,1.38,0,0,1,42.05,454.76Z"></path><path class="c" d="M46.29,457.92l.53-.79a2.58,2.58,0,0,0,2.2.92,1.94,1.94,0,0,0,2.17-2v-1a2.83,2.83,0,0,1-2.27,1.21c-1.76,0-3-1.32-3-3.5s1.23-3.52,3-3.52a2.81,2.81,0,0,1,2.27,1.19v-1h1.05V456c0,2.24-1.57,2.94-3.22,2.94A3.46,3.46,0,0,1,46.29,457.92Zm4.9-3.68v-3a2.49,2.49,0,0,0-2-1.09c-1.36,0-2.17,1.08-2.17,2.58s.81,2.58,2.17,2.58A2.5,2.5,0,0,0,51.2,454.23Z"></path><path class="c" d="M54.7,456.18v-6.77h1.05v1.09A2.87,2.87,0,0,1,58,449.27v1.08a1.83,1.83,0,0,0-.42,0,2.47,2.47,0,0,0-1.83,1.08v4.79Z"></path><path class="c" d="M59.27,452.79a3.38,3.38,0,0,1,3.33-3.54c2,0,3.25,1.6,3.25,3.63v.27H60.38a2.38,2.38,0,0,0,2.44,2.34,3,3,0,0,0,2.09-.85l.5.69a3.68,3.68,0,0,1-2.69,1A3.35,3.35,0,0,1,59.27,452.79Zm3.32-2.68a2.26,2.26,0,0,0-2.21,2.25h4.44A2.19,2.19,0,0,0,62.59,450.11Z"></path><path class="c" d="M67.38,454.86l.69-.88A4,4,0,0,0,71,455.31c1.67,0,2.2-.9,2.2-1.61,0-2.41-5.53-1.08-5.53-4.41,0-1.54,1.37-2.59,3.21-2.59A4.39,4.39,0,0,1,74.2,448l-.7.85a3.57,3.57,0,0,0-2.7-1.12c-1.12,0-1.92.6-1.92,1.48,0,2.1,5.53.9,5.53,4.38,0,1.36-.92,2.75-3.45,2.75A4.63,4.63,0,0,1,67.38,454.86Z"></path><path class="c" d="M76.11,451.51a4.64,4.64,0,1,1,9.27,0A4.93,4.93,0,0,1,84.1,455l.9,1-.81.7-.91-1a4.62,4.62,0,0,1-2.52.7A4.55,4.55,0,0,1,76.11,451.51Zm6.42,3.32-1.33-1.44.81-.69,1.32,1.43a4.12,4.12,0,0,0,.85-2.62c0-2.19-1.34-3.8-3.43-3.8s-3.43,1.61-3.43,3.8,1.33,3.8,3.43,3.8A3.37,3.37,0,0,0,82.53,454.83Z"></path><path class="c" d="M87.55,456.18v-9.34h1.16v8.31h4.34v1Z"></path><path class="c" d="M162.09,528l3.77-8.31h-5v-1h6.37v.8L163.38,528Z"></path><path class="c" d="M169.65,528l3.77-8.31h-5v-1h6.37v.8L170.94,528Z"></path><path class="c" d="M177.21,528l3.77-8.31h-5v-1h6.37v.8L178.5,528Z"></path><path class="c" d="M184.77,528l3.77-8.31h-5v-1h6.37v.8L186.06,528Z"></path><path class="c" d="M197.19,530.8a10.69,10.69,0,0,1,0-12.38l.63.48a11.91,11.91,0,0,0,0,11.42Z"></path><path class="c" d="M206.14,528v-4.29h-5.46V528h-1.16v-9.34h1.16v4h5.46v-4h1.16V528Z"></path><path class="c" d="M212.14,528v-8.31h-3v-1h7.09v1h-3V528Z"></path><path class="c" d="M220.47,528v-8.31h-3v-1h7.09v1h-3V528Z"></path><path class="c" d="M226.49,528v-9.34h3.75a2.82,2.82,0,1,1,0,5.63h-2.59V528Zm5.48-6.53a1.74,1.74,0,0,0-1.86-1.78h-2.45v3.56h2.45A1.74,1.74,0,0,0,232,521.49Z"></path><path class="c" d="M234.2,530.31a11.81,11.81,0,0,0,0-11.42l.63-.48a10.63,10.63,0,0,1,0,12.38Z"></path><path class="c" d="M91.72,25.85a2.77,2.77,0,0,1,2.23-2.45,2.45,2.45,0,0,1-2.07-2.24c0-1.68,1.64-2.42,3.19-2.42s3.21.74,3.21,2.42a2.47,2.47,0,0,1-2.09,2.24,2.77,2.77,0,0,1,2.23,2.45c0,1.58-1.51,2.54-3.35,2.54S91.72,27.45,91.72,25.85Zm5.52-.13c0-1.22-1.6-1.74-2.17-1.81s-2.19.59-2.19,1.81c0,1,1,1.63,2.19,1.63S97.24,26.74,97.24,25.73Zm-.14-4.41c0-1-.91-1.54-2-1.54s-2,.57-2,1.54c0,1.13,1.47,1.51,2,1.61C95.64,22.83,97.1,22.45,97.1,21.32Z"></path><path class="c" d="M100.19,23.56c0-2.28,1-4.82,3.57-4.82s3.57,2.54,3.57,4.82-1,4.83-3.57,4.83S100.19,25.83,100.19,23.56Zm6,0c0-1.86-.6-3.78-2.38-3.78s-2.38,1.92-2.38,3.78.6,3.8,2.38,3.8S106.14,25.42,106.14,23.56Z"></path><path class="c" d="M114.94,31a10.69,10.69,0,0,1,0-12.38l.63.48a11.91,11.91,0,0,0,0,11.42Z"></path><path class="c" d="M119.58,28.22V19.92h-3v-1h7.09v1h-3v8.31Z"></path><path class="c" d="M124.84,23.56a4.67,4.67,0,0,1,4.8-4.83,4.18,4.18,0,0,1,3.54,1.85l-1,.55a3.15,3.15,0,0,0-2.56-1.36,3.59,3.59,0,0,0-3.6,3.8,3.6,3.6,0,0,0,3.6,3.8A3.11,3.11,0,0,0,132.21,26l1,.55a4.23,4.23,0,0,1-3.56,1.85A4.67,4.67,0,0,1,124.84,23.56Z"></path><path class="c" d="M135,28.22V18.88h3.75a2.82,2.82,0,1,1,0,5.63h-2.59v3.71Zm5.48-6.53a1.74,1.74,0,0,0-1.86-1.78h-2.45v3.56h2.45A1.74,1.74,0,0,0,140.51,21.69Z"></path><path class="c" d="M142.75,30.52a11.81,11.81,0,0,0,0-11.42l.63-.48a10.63,10.63,0,0,1,0,12.38Z"></path><path class="c" d="M90.54,44.22V41.85H86.1v-1l4-6h1.6v6H93v1H91.71v2.37Zm0-8.26-3.28,4.88h3.28Z"></path><path class="c" d="M98.71,44.22V41.85H94.27v-1l4-6h1.6v6h1.32v1H99.87v2.37Zm0-8.26-3.28,4.88h3.28Z"></path><path class="c" d="M102.39,42.85l.69-.73a3.24,3.24,0,0,0,2.61,1.23c1.36,0,2.18-.67,2.18-1.75s-1-1.65-2.33-1.65c-.39,0-.83,0-1,0V38.9c.15,0,.59,0,1,0,1.18,0,2.17-.46,2.17-1.54s-1-1.6-2.09-1.6a3.16,3.16,0,0,0-2.46,1.13l-.64-.73a4,4,0,0,1,3.19-1.44c1.79,0,3.17.91,3.17,2.49a2.28,2.28,0,0,1-2,2.17A2.35,2.35,0,0,1,109,41.7c0,1.55-1.25,2.69-3.31,2.69A3.94,3.94,0,0,1,102.39,42.85Z"></path><path class="c" d="M116.68,47a10.69,10.69,0,0,1,0-12.38l.63.48a11.91,11.91,0,0,0,0,11.42Z"></path><path class="c" d="M118.44,42.91l.69-.88a4,4,0,0,0,2.94,1.33c1.67,0,2.2-.9,2.2-1.61,0-2.41-5.53-1.08-5.53-4.41,0-1.54,1.37-2.59,3.21-2.59a4.39,4.39,0,0,1,3.32,1.3l-.7.85a3.57,3.57,0,0,0-2.7-1.12c-1.12,0-1.92.6-1.92,1.48,0,2.1,5.53.9,5.53,4.38,0,1.36-.92,2.75-3.45,2.75A4.63,4.63,0,0,1,118.44,42.91Z"></path><path class="c" d="M127,42.91l.69-.88a4,4,0,0,0,2.94,1.33c1.67,0,2.2-.9,2.2-1.61,0-2.41-5.53-1.08-5.53-4.41,0-1.54,1.37-2.59,3.21-2.59a4.39,4.39,0,0,1,3.32,1.3l-.7.85a3.57,3.57,0,0,0-2.7-1.12c-1.12,0-1.92.6-1.92,1.48,0,2.1,5.53.9,5.53,4.38,0,1.36-.92,2.75-3.45,2.75A4.63,4.63,0,0,1,127,42.91Z"></path><path class="c" d="M136.11,44.22V34.88h1.16v8.31h4.34v1Z"></path><path class="c" d="M142.75,46.52a11.81,11.81,0,0,0,0-11.42l.63-.48a10.63,10.63,0,0,1,0,12.38Z"></path><path class="c" d="M74.31,169.92a2.77,2.77,0,0,1,2.23-2.45,2.45,2.45,0,0,1-2.07-2.24c0-1.68,1.64-2.42,3.19-2.42s3.21.74,3.21,2.42a2.47,2.47,0,0,1-2.09,2.24A2.77,2.77,0,0,1,81,169.92c0,1.58-1.51,2.54-3.35,2.54S74.31,171.51,74.31,169.92Zm5.52-.13c0-1.22-1.6-1.74-2.17-1.81s-2.19.59-2.19,1.81c0,1,1,1.63,2.19,1.63S79.83,170.8,79.83,169.79Zm-.14-4.41c0-1-.91-1.54-2-1.54s-2,.57-2,1.54c0,1.13,1.47,1.51,2,1.61C78.24,166.89,79.69,166.51,79.69,165.38Z"></path><path class="c" d="M82.79,167.62c0-2.28,1-4.82,3.57-4.82s3.57,2.54,3.57,4.82-1,4.83-3.57,4.83S82.79,169.89,82.79,167.62Zm6,0c0-1.86-.6-3.78-2.38-3.78S84,165.76,84,167.62s.6,3.8,2.38,3.8S88.74,169.48,88.74,167.62Z"></path><path class="c" d="M91.72,169.92a2.77,2.77,0,0,1,2.23-2.45,2.45,2.45,0,0,1-2.07-2.24c0-1.68,1.64-2.42,3.19-2.42s3.21.74,3.21,2.42a2.47,2.47,0,0,1-2.09,2.24,2.77,2.77,0,0,1,2.23,2.45c0,1.58-1.51,2.54-3.35,2.54S91.72,171.51,91.72,169.92Zm5.52-.13c0-1.22-1.6-1.74-2.17-1.81s-2.19.59-2.19,1.81c0,1,1,1.63,2.19,1.63S97.24,170.8,97.24,169.79Zm-.14-4.41c0-1-.91-1.54-2-1.54s-2,.57-2,1.54c0,1.13,1.47,1.51,2,1.61C95.64,166.89,97.1,166.51,97.1,165.38Z"></path><path class="c" d="M100.19,167.62c0-2.28,1-4.82,3.57-4.82s3.57,2.54,3.57,4.82-1,4.83-3.57,4.83S100.19,169.89,100.19,167.62Zm6,0c0-1.86-.6-3.78-2.38-3.78s-2.38,1.92-2.38,3.78.6,3.8,2.38,3.8S106.14,169.48,106.14,167.62Z"></path><path class="c" d="M114.94,175.07a10.69,10.69,0,0,1,0-12.38l.63.48a11.91,11.91,0,0,0,0,11.42Z"></path><path class="c" d="M119.58,172.28V164h-3v-1h7.09v1h-3v8.31Z"></path><path class="c" d="M124.84,167.62a4.67,4.67,0,0,1,4.8-4.83,4.18,4.18,0,0,1,3.54,1.85l-1,.55a3.15,3.15,0,0,0-2.56-1.36,3.8,3.8,0,0,0,0,7.59,3.11,3.11,0,0,0,2.56-1.36l1,.55a4.23,4.23,0,0,1-3.56,1.85A4.67,4.67,0,0,1,124.84,167.62Z"></path><path class="c" d="M135,172.28v-9.34h3.75a2.82,2.82,0,1,1,0,5.63h-2.59v3.71Zm5.48-6.53a1.74,1.74,0,0,0-1.86-1.78h-2.45v3.56h2.45A1.74,1.74,0,0,0,140.51,165.76Z"></path><path class="c" d="M142.75,174.58a11.81,11.81,0,0,0,0-11.42l.63-.48a10.63,10.63,0,0,1,0,12.38Z"></path><path class="c" d="M414.5,28.22V27.3c3.36-2.65,5.18-4.2,5.18-5.81a1.75,1.75,0,0,0-1.95-1.71A3.12,3.12,0,0,0,415.2,21l-.71-.74a4,4,0,0,1,3.25-1.47c1.55,0,3.14.88,3.14,2.75s-1.93,3.64-4.54,5.7h4.58v1Z"></path><path class="c" d="M423.08,28.22V27.3c3.36-2.65,5.18-4.2,5.18-5.81a1.75,1.75,0,0,0-1.95-1.71A3.12,3.12,0,0,0,423.78,21l-.71-.74a4,4,0,0,1,3.25-1.47c1.55,0,3.14.88,3.14,2.75s-1.93,3.64-4.54,5.7h4.58v1Z"></path><path class="c" d="M431.67,28.22V27.3c3.36-2.65,5.18-4.2,5.18-5.81a1.75,1.75,0,0,0-1.95-1.71A3.12,3.12,0,0,0,432.37,21l-.71-.74a4,4,0,0,1,3.25-1.47c1.55,0,3.14.88,3.14,2.75s-1.93,3.64-4.54,5.7h4.58v1Z"></path><path class="c" d="M440.25,28.22V27.3c3.36-2.65,5.18-4.2,5.18-5.81a1.75,1.75,0,0,0-1.95-1.71A3.12,3.12,0,0,0,440.95,21l-.71-.74a4,4,0,0,1,3.25-1.47c1.55,0,3.14.88,3.14,2.75s-1.93,3.64-4.54,5.7h4.58v1Z"></path><path class="c" d="M454.63,31a10.69,10.69,0,0,1,0-12.38l.63.48a11.91,11.91,0,0,0,0,11.42Z"></path><path class="c" d="M459.26,28.22V19.92h-3v-1h7.09v1h-3v8.31Z"></path><path class="c" d="M464.52,23.56a4.67,4.67,0,0,1,4.8-4.83,4.18,4.18,0,0,1,3.54,1.85l-1,.55a3.15,3.15,0,0,0-2.56-1.36,3.59,3.59,0,0,0-3.6,3.8,3.6,3.6,0,0,0,3.6,3.8A3.11,3.11,0,0,0,471.89,26l1,.55a4.23,4.23,0,0,1-3.56,1.85A4.67,4.67,0,0,1,464.52,23.56Z"></path><path class="c" d="M474.72,28.22V18.88h3.75a2.82,2.82,0,1,1,0,5.63h-2.59v3.71Zm5.48-6.53a1.74,1.74,0,0,0-1.86-1.78h-2.45v3.56h2.45A1.74,1.74,0,0,0,480.19,21.69Z"></path><path class="c" d="M482.43,30.52a11.81,11.81,0,0,0,0-11.42l.63-.48a10.63,10.63,0,0,1,0,12.38Z"></path><path class="c" d="M414.5,172.28v-.92c3.36-2.65,5.18-4.2,5.18-5.81a1.75,1.75,0,0,0-1.95-1.71A3.12,3.12,0,0,0,415.2,165l-.71-.74a4,4,0,0,1,3.25-1.47c1.55,0,3.14.88,3.14,2.75s-1.93,3.64-4.54,5.7h4.58v1Z"></path><path class="c" d="M423.08,172.28v-.92c3.36-2.65,5.18-4.2,5.18-5.81a1.75,1.75,0,0,0-1.95-1.71,3.12,3.12,0,0,0-2.54,1.18l-.71-.74a4,4,0,0,1,3.25-1.47c1.55,0,3.14.88,3.14,2.75s-1.93,3.64-4.54,5.7h4.58v1Z"></path><path class="c" d="M431.67,172.28v-.92c3.36-2.65,5.18-4.2,5.18-5.81a1.75,1.75,0,0,0-1.95-1.71,3.12,3.12,0,0,0-2.54,1.18l-.71-.74a4,4,0,0,1,3.25-1.47c1.55,0,3.14.88,3.14,2.75s-1.93,3.64-4.54,5.7h4.58v1Z"></path><path class="c" d="M440.25,172.28v-.92c3.36-2.65,5.18-4.2,5.18-5.81a1.75,1.75,0,0,0-1.95-1.71,3.12,3.12,0,0,0-2.54,1.18l-.71-.74a4,4,0,0,1,3.25-1.47c1.55,0,3.14.88,3.14,2.75s-1.93,3.64-4.54,5.7h4.58v1Z"></path><path class="c" d="M454.63,175.07a10.69,10.69,0,0,1,0-12.38l.63.48a11.91,11.91,0,0,0,0,11.42Z"></path><path class="c" d="M459.26,172.28V164h-3v-1h7.09v1h-3v8.31Z"></path><path class="c" d="M464.52,167.62a4.67,4.67,0,0,1,4.8-4.83,4.18,4.18,0,0,1,3.54,1.85l-1,.55a3.15,3.15,0,0,0-2.56-1.36,3.8,3.8,0,0,0,0,7.59,3.11,3.11,0,0,0,2.56-1.36l1,.55a4.23,4.23,0,0,1-3.56,1.85A4.67,4.67,0,0,1,464.52,167.62Z"></path><path class="c" d="M474.72,172.28v-9.34h3.75a2.82,2.82,0,1,1,0,5.63h-2.59v3.71Zm5.48-6.53a1.74,1.74,0,0,0-1.86-1.78h-2.45v3.56h2.45A1.74,1.74,0,0,0,480.19,165.76Z"></path><path class="c" d="M482.43,174.58a11.81,11.81,0,0,0,0-11.42l.63-.48a10.63,10.63,0,0,1,0,12.38Z"></path><path class="c" d="M212.62,212.56v-9.34h3.75a2.82,2.82,0,1,1,0,5.63h-2.59v3.71Zm5.48-6.53a1.74,1.74,0,0,0-1.86-1.78h-2.45v3.56h2.45A1.74,1.74,0,0,0,218.09,206Z"></path><path class="c" d="M220.81,207.9a4.64,4.64,0,1,1,4.64,4.83A4.55,4.55,0,0,1,220.81,207.9Zm8.07,0c0-2.19-1.34-3.8-3.43-3.8s-3.43,1.61-3.43,3.8,1.33,3.8,3.43,3.8S228.88,210.07,228.88,207.9Z"></path><path class="c" d="M231.68,211.24l.69-.88a4,4,0,0,0,2.94,1.33c1.67,0,2.2-.9,2.2-1.61,0-2.41-5.53-1.08-5.53-4.41,0-1.54,1.37-2.59,3.21-2.59a4.39,4.39,0,0,1,3.32,1.3l-.7.85a3.57,3.57,0,0,0-2.7-1.12c-1.12,0-1.92.6-1.92,1.48,0,2.1,5.53.9,5.53,4.38,0,1.36-.92,2.75-3.45,2.75A4.63,4.63,0,0,1,231.68,211.24Z"></path><path class="c" d="M243,212.56v-8.31h-3v-1h7.09v1h-3v8.31Z"></path><path class="c" d="M251.91,212.84l3.32-9.9h.83l-3.32,9.9Z"></path><path class="c" d="M261.69,212.56v-.77a2.93,2.93,0,0,1-2.24.94,2.25,2.25,0,0,1-2.37-2.24,2.22,2.22,0,0,1,2.37-2.23,2.83,2.83,0,0,1,2.24.92V208c0-.91-.73-1.43-1.71-1.43a2.69,2.69,0,0,0-2.07.94l-.49-.73a3.54,3.54,0,0,1,2.7-1.12c1.43,0,2.62.64,2.62,2.28v4.65Zm0-1.43v-1.27a2.27,2.27,0,0,0-1.86-.84,1.49,1.49,0,1,0,0,3A2.27,2.27,0,0,0,261.69,211.13Z"></path><path class="c" d="M266.24,211.54v3.6h-1.05v-9.34h1.05v1a2.83,2.83,0,0,1,2.28-1.18c1.78,0,3,1.34,3,3.54s-1.23,3.56-3,3.56A2.77,2.77,0,0,1,266.24,211.54Zm4.19-2.37c0-1.5-.81-2.61-2.17-2.61a2.5,2.5,0,0,0-2,1.08v3.05a2.51,2.51,0,0,0,2,1.09C269.61,211.79,270.42,210.67,270.42,209.17Z"></path><path class="c" d="M273.36,204.13a.71.71,0,1,1,1.42,0,.71.71,0,0,1-1.42,0Zm.18,8.43v-6.77h1.05v6.77Z"></path><path class="c" d="M276,212.84l3.32-9.9h.83l-3.32,9.9Z"></path><path class="c" d="M283.34,212.56l-2.82-6.77h1.13l2.25,5.55,2.24-5.55h1.15l-2.82,6.77Z"></path><path class="c" d="M290.19,212.56v-7.8l-1.5,1.58-.7-.71,2.34-2.41h1v9.34Z"></path><path class="c" d="M292.79,212.84l3.32-9.9h.83l-3.32,9.9Z"></path><path class="c" d="M304.19,212.56l-1.76-5.43-1.76,5.43h-1.05l-2.16-6.77h1.09l1.65,5.39,1.78-5.39h.9l1.78,5.39,1.65-5.39h1.09l-2.16,6.77Z"></path><path class="c" d="M308.57,209.17a3.35,3.35,0,1,1,3.35,3.56A3.32,3.32,0,0,1,308.57,209.17Zm5.59,0a2.27,2.27,0,1,0-2.24,2.62A2.35,2.35,0,0,0,314.16,209.17Z"></path><path class="c" d="M317.32,212.56v-6.77h1.05v1.09a2.87,2.87,0,0,1,2.25-1.23v1.08a1.83,1.83,0,0,0-.42,0,2.47,2.47,0,0,0-1.83,1.08v4.79Z"></path><path class="c" d="M326.9,212.56l-2.44-3-1.12,1.11v1.93h-1.05v-9.34h1.05v6.18l3.56-3.6h1.33l-3,3.07,3,3.7Z"></path><path class="c" d="M329.4,209.17a3.38,3.38,0,0,1,3.33-3.54c2,0,3.25,1.6,3.25,3.63v.27h-5.48a2.38,2.38,0,0,0,2.44,2.34A3,3,0,0,0,335,211l.5.69a3.68,3.68,0,0,1-2.69,1A3.35,3.35,0,0,1,329.4,209.17Zm3.32-2.68a2.26,2.26,0,0,0-2.21,2.25H335A2.19,2.19,0,0,0,332.72,206.49Z"></path><path class="c" d="M338,212.56v-6.77h1.05v1.09a2.87,2.87,0,0,1,2.25-1.23v1.08a1.83,1.83,0,0,0-.42,0,2.47,2.47,0,0,0-1.83,1.08v4.79Z"></path><path class="c" d="M342.41,211.66l.55-.76a3.06,3.06,0,0,0,2.23,1c1,0,1.6-.49,1.6-1.16,0-1.64-4.19-.63-4.19-3.14,0-1.05.91-1.95,2.52-1.95a3.42,3.42,0,0,1,2.51,1l-.49.73a2.64,2.64,0,0,0-2-.85c-.92,0-1.5.46-1.5,1.06,0,1.48,4.19.5,4.19,3.14,0,1.13-.91,2-2.66,2A3.6,3.6,0,0,1,342.41,211.66Z"></path><path class="c" d="M256.14,181.63a2.91,2.91,0,0,0,.08-.46c0-.79-.6-1.09-1.4-1.09a3.14,3.14,0,0,0-2.09,1.08l-1.09,4.92H250.6l2.06-9.34h1.05l-.79,3.56a3.64,3.64,0,0,1,2.4-1.15c1.19,0,2,.59,2,1.68a2.8,2.8,0,0,1-.08.56l-1,4.69h-1Z"></path><path class="c" d="M262.75,179.14a2.78,2.78,0,0,1,2.91,3,5.21,5.21,0,0,1-.11.94H260c0,.06,0,.22,0,.32a2.06,2.06,0,0,0,2.3,2,3.23,3.23,0,0,0,1.95-.66l.35.73a4,4,0,0,1-2.37.8c-2.06,0-3.31-1.19-3.31-3A4,4,0,0,1,262.75,179.14Zm2,2.86a1.89,1.89,0,0,0-2.06-2,2.68,2.68,0,0,0-2.51,2.25h4.54A1.57,1.57,0,0,0,264.71,182Z"></path><path class="c" d="M273.31,179.3h1.05l-1.5,6.77h-1l.21-1a2.81,2.81,0,0,1-2.23,1.13,2.52,2.52,0,0,1-2.62-2.79c0-2.2,1.36-4.31,3.54-4.31a2.68,2.68,0,0,1,2.35,1.23Zm-3.14,6a2.62,2.62,0,0,0,2.06-1.15l.67-3a2.29,2.29,0,0,0-2-1.09c-1.54,0-2.58,1.55-2.58,3.18A1.85,1.85,0,0,0,270.17,185.3Z"></path><path class="c" d="M276.81,179.3h1.05l-.24,1a3,3,0,0,1,2.52-1.18l-.24,1.08a2.07,2.07,0,0,0-.53-.06,2.64,2.64,0,0,0-2,1.11l-1.05,4.78h-1.05Z"></path><path class="c" d="M280.81,184.61l1-4.4h-1.12l.21-.91H282l.41-1.85h1.05l-.41,1.85h1.37l-.21.91h-1.37l-.92,4.17a1.76,1.76,0,0,0,0,.28c0,.41.22.63.67.63a1,1,0,0,0,.64-.22l.13.84a1.68,1.68,0,0,1-1,.32c-.94,0-1.54-.39-1.54-1.23A2.59,2.59,0,0,1,280.81,184.61Z"></path><path class="c" d="M285.79,186.07h-1.05l2.06-9.34h1.05l-.79,3.54a2.85,2.85,0,0,1,2.24-1.13,2.53,2.53,0,0,1,2.62,2.79c0,2.2-1.37,4.31-3.54,4.31A2.66,2.66,0,0,1,286,185Zm3.14-6a2.66,2.66,0,0,0-2.07,1.16l-.66,3a2.26,2.26,0,0,0,2,1.09c1.54,0,2.58-1.55,2.58-3.18A1.85,1.85,0,0,0,288.93,180.07Z"></path><path class="c" d="M297.22,179.14a2.78,2.78,0,0,1,2.91,3,5.21,5.21,0,0,1-.11.94H294.5c0,.06,0,.22,0,.32a2.06,2.06,0,0,0,2.3,2,3.23,3.23,0,0,0,1.95-.66l.35.73a4,4,0,0,1-2.37.8c-2.06,0-3.31-1.19-3.31-3A4,4,0,0,1,297.22,179.14Zm2,2.86a1.89,1.89,0,0,0-2.06-2,2.68,2.68,0,0,0-2.51,2.25h4.54A1.57,1.57,0,0,0,299.18,182Z"></path><path class="c" d="M307.78,179.3h1.05l-1.5,6.77h-1l.21-1a2.81,2.81,0,0,1-2.23,1.13,2.52,2.52,0,0,1-2.62-2.79c0-2.2,1.36-4.31,3.54-4.31a2.68,2.68,0,0,1,2.35,1.23Zm-3.14,6a2.62,2.62,0,0,0,2.06-1.15l.67-3a2.29,2.29,0,0,0-2-1.09c-1.54,0-2.58,1.55-2.58,3.18A1.85,1.85,0,0,0,304.64,185.3Z"></path><path class="c" d="M310.31,184.61l1-4.4h-1.12l.21-.91h1.12l.41-1.85H313l-.41,1.85h1.37l-.21.91h-1.37l-.92,4.17a1.76,1.76,0,0,0,0,.28c0,.41.22.63.67.63a1,1,0,0,0,.64-.22l.13.84a1.68,1.68,0,0,1-1,.32c-.94,0-1.54-.39-1.54-1.23A2.59,2.59,0,0,1,310.31,184.61Z"></path><path class="c" d="M315.74,179.3h1.05l-1.5,6.77h-1.05Zm1-2.55a.63.63,0,0,1,.64.62.81.81,0,0,1-.8.8.63.63,0,0,1-.64-.62A.81.81,0,0,1,316.73,176.75Z"></path><path class="c" d="M323.29,181.63a2.25,2.25,0,0,0,.08-.46c0-.79-.6-1.09-1.33-1.09a3.14,3.14,0,0,0-2.16,1.06l-1.09,4.93h-1.05l1.5-6.77h1.05l-.22,1a3.64,3.64,0,0,1,2.4-1.15c1.19,0,2,.59,2,1.68a2.66,2.66,0,0,1-.08.56l-1,4.69h-1.05Z"></path><path class="c" d="M326.13,187a2.7,2.7,0,0,0,2.34,1c1,0,1.92-.52,2.27-2.07l.2-.88a2.91,2.91,0,0,1-2.3,1.15,2.49,2.49,0,0,1-2.58-2.8c0-2.13,1.34-4.2,3.53-4.2a3,3,0,0,1,2.37,1.23l.24-1.06h1.05l-1.46,6.57c-.49,2.23-1.85,2.94-3.31,2.94a3.59,3.59,0,0,1-3-1.15Zm5.65-5.76a2.38,2.38,0,0,0-2.1-1.12c-1.54,0-2.51,1.54-2.51,3.1a1.83,1.83,0,0,0,1.89,2,2.89,2.89,0,0,0,2.07-1.08Z"></path><path class="c" d="M321.83,528l3.77-8.31h-5v-1h6.37v.8L323.12,528Z"></path><path class="c" d="M329.39,528l3.77-8.31h-5v-1h6.37v.8L330.68,528Z"></path><path class="c" d="M336,525.65a2.77,2.77,0,0,1,2.23-2.45,2.45,2.45,0,0,1-2.07-2.24c0-1.68,1.64-2.42,3.19-2.42s3.21.74,3.21,2.42a2.47,2.47,0,0,1-2.09,2.24,2.77,2.77,0,0,1,2.23,2.45c0,1.58-1.51,2.54-3.35,2.54S336,527.24,336,525.65Zm5.52-.13c0-1.22-1.6-1.74-2.17-1.81s-2.19.59-2.19,1.81c0,1,1,1.63,2.19,1.63S341.5,526.53,341.5,525.52Zm-.14-4.41c0-1-.91-1.54-2-1.54s-2,.57-2,1.54c0,1.13,1.47,1.51,2,1.61C339.91,522.62,341.36,522.24,341.36,521.11Z"></path><path class="c" d="M344.47,525.65a2.77,2.77,0,0,1,2.23-2.45,2.45,2.45,0,0,1-2.07-2.24c0-1.68,1.64-2.42,3.19-2.42s3.21.74,3.21,2.42a2.47,2.47,0,0,1-2.09,2.24,2.77,2.77,0,0,1,2.23,2.45c0,1.58-1.51,2.54-3.35,2.54S344.47,527.24,344.47,525.65Zm5.52-.13c0-1.22-1.6-1.74-2.17-1.81s-2.19.59-2.19,1.81c0,1,1,1.63,2.19,1.63S350,526.53,350,525.52Zm-.14-4.41c0-1-.91-1.54-2-1.54s-2,.57-2,1.54c0,1.13,1.47,1.51,2,1.61C348.39,522.62,349.85,522.24,349.85,521.11Z"></path><path class="c" d="M358.78,530.8a10.69,10.69,0,0,1,0-12.38l.63.48a11.91,11.91,0,0,0,0,11.42Z"></path><path class="c" d="M367.73,528v-4.29h-5.46V528H361.1v-9.34h1.16v4h5.46v-4h1.16V528Z"></path><path class="c" d="M373.73,528v-8.31h-3v-1h7.09v1h-3V528Z"></path><path class="c" d="M382.06,528v-8.31h-3v-1h7.09v1h-3V528Z"></path><path class="c" d="M388.08,528v-9.34h3.75a2.82,2.82,0,1,1,0,5.63h-2.59V528Zm5.48-6.53a1.74,1.74,0,0,0-1.86-1.78h-2.45v3.56h2.45A1.74,1.74,0,0,0,393.56,521.49Z"></path><path class="c" d="M395.79,530.31a11.81,11.81,0,0,0,0-11.42l.63-.48a10.63,10.63,0,0,1,0,12.38Z"></path><path class="c" d="M456.12,448.27v-6.77h1.05v1.09a2.87,2.87,0,0,1,2.25-1.23v1.08a1.83,1.83,0,0,0-.42,0,2.47,2.47,0,0,0-1.83,1.08v4.79Z"></path><path class="c" d="M460.7,444.88a3.38,3.38,0,0,1,3.33-3.54c2,0,3.25,1.6,3.25,3.63v.27h-5.48a2.38,2.38,0,0,0,2.44,2.34,3,3,0,0,0,2.09-.85l.5.69a3.68,3.68,0,0,1-2.69,1A3.35,3.35,0,0,1,460.7,444.88Zm3.32-2.68a2.26,2.26,0,0,0-2.21,2.25h4.44A2.19,2.19,0,0,0,464,442.21Z"></path><path class="c" d="M469.31,450l.53-.79a2.58,2.58,0,0,0,2.2.92,1.94,1.94,0,0,0,2.17-2v-1a2.83,2.83,0,0,1-2.27,1.21c-1.76,0-3-1.32-3-3.5s1.23-3.52,3-3.52a2.81,2.81,0,0,1,2.27,1.19v-1h1.05v6.57c0,2.24-1.57,2.94-3.22,2.94A3.46,3.46,0,0,1,469.31,450Zm4.9-3.68v-3a2.49,2.49,0,0,0-2-1.09c-1.36,0-2.17,1.08-2.17,2.58s.81,2.58,2.17,2.58A2.5,2.5,0,0,0,474.21,446.33Z"></path><path class="c" d="M477.53,439.84a.71.71,0,1,1,1.42,0,.71.71,0,0,1-1.42,0Zm.18,8.43v-6.77h1.05v6.77Z"></path><path class="c" d="M480.62,447.38l.55-.76a3.06,3.06,0,0,0,2.23,1c1,0,1.6-.49,1.6-1.16,0-1.64-4.19-.63-4.19-3.14,0-1.05.91-1.95,2.52-1.95a3.42,3.42,0,0,1,2.51,1l-.49.73a2.64,2.64,0,0,0-2-.85c-.92,0-1.5.46-1.5,1.06,0,1.48,4.19.5,4.19,3.14,0,1.13-.91,2-2.66,2A3.6,3.6,0,0,1,480.62,447.38Z"></path><path class="c" d="M488.28,446.86v-4.43h-1.12v-.92h1.12v-1.85h1.05v1.85h1.37v.92h-1.37v4.2c0,.5.22.87.69.87a1,1,0,0,0,.71-.28l.31.78a1.72,1.72,0,0,1-1.26.43A1.38,1.38,0,0,1,488.28,446.86Z"></path><path class="c" d="M492.15,444.88a3.38,3.38,0,0,1,3.33-3.54c2,0,3.25,1.6,3.25,3.63v.27h-5.48a2.38,2.38,0,0,0,2.44,2.34,3,3,0,0,0,2.09-.85l.5.69a3.68,3.68,0,0,1-2.69,1A3.35,3.35,0,0,1,492.15,444.88Zm3.32-2.68a2.26,2.26,0,0,0-2.21,2.25h4.44A2.19,2.19,0,0,0,495.47,442.21Z"></path><path class="c" d="M500.77,448.27v-6.77h1.05v1.09a2.87,2.87,0,0,1,2.25-1.23v1.08a1.83,1.83,0,0,0-.42,0,2.47,2.47,0,0,0-1.83,1.08v4.79Z"></path><path class="c" d="M505.11,445.34v-.92h3.36v.92Z"></path><path class="c" d="M516.14,448.27l-1.76-5.43-1.76,5.43h-1.05l-2.16-6.77h1.09l1.65,5.39,1.78-5.39h.9l1.78,5.39,1.65-5.39h1.09l-2.16,6.77Z"></path><path class="c" d="M520.52,444.88a3.35,3.35,0,1,1,3.35,3.56A3.32,3.32,0,0,1,520.52,444.88Zm5.59,0a2.27,2.27,0,1,0-2.24,2.62A2.35,2.35,0,0,0,526.11,444.88Z"></path><path class="c" d="M529.27,448.27v-6.77h1.05v1.09a2.87,2.87,0,0,1,2.25-1.23v1.08a1.83,1.83,0,0,0-.42,0,2.47,2.47,0,0,0-1.83,1.08v4.79Z"></path><path class="c" d="M538.85,448.27l-2.44-3-1.12,1.11v1.93h-1.05v-9.34h1.05v6.18l3.56-3.6h1.33l-3,3.07,3,3.7Z"></path><path class="c" d="M541.35,444.88a3.38,3.38,0,0,1,3.33-3.54c2,0,3.25,1.6,3.25,3.63v.27h-5.48a2.38,2.38,0,0,0,2.44,2.34,3,3,0,0,0,2.09-.85l.5.69a3.68,3.68,0,0,1-2.69,1A3.35,3.35,0,0,1,541.35,444.88Zm3.32-2.68a2.26,2.26,0,0,0-2.21,2.25h4.44A2.19,2.19,0,0,0,544.67,442.21Z"></path><path class="c" d="M550,448.27v-6.77H551v1.09a2.87,2.87,0,0,1,2.25-1.23v1.08a1.83,1.83,0,0,0-.42,0,2.47,2.47,0,0,0-1.83,1.08v4.79Z"></path><path class="c" d="M494.47,455.84a.71.71,0,1,1,1.42,0,.71.71,0,0,1-1.42,0Zm.18,8.43v-6.77h1.05v6.77Z"></path><path class="c" d="M498.45,464.27v-5.84h-1.12v-.92h1.12V457a1.93,1.93,0,0,1,2-2.2,2,2,0,0,1,1.43.52l-.43.69a1.24,1.24,0,0,0-.84-.34c-.69,0-1.06.48-1.06,1.33v.52h1.37v.92H499.5v5.84Z"></path><path class="c" d="M506.24,455.84a.71.71,0,1,1,1.42,0,.71.71,0,0,1-1.42,0Zm.18,8.43v-6.77h1.05v6.77Z"></path><path class="c" d="M514.49,464.27v-4.43c0-1.19-.6-1.57-1.51-1.57a2.61,2.61,0,0,0-2,1.05v4.94h-1.05v-6.77H511v1a3.35,3.35,0,0,1,2.41-1.15,1.92,1.92,0,0,1,2.16,2.18v4.75Z"></path><path class="c" d="M518.2,462.86v-4.43h-1.12v-.92h1.12v-1.85h1.05v1.85h1.37v.92h-1.37v4.2c0,.5.22.87.69.87a1,1,0,0,0,.71-.28l.31.78a1.72,1.72,0,0,1-1.26.43A1.38,1.38,0,0,1,518.2,462.86Z"></path><path class="c" d="M522.06,460.88a3.38,3.38,0,0,1,3.33-3.54c2,0,3.25,1.6,3.25,3.63v.27h-5.48a2.38,2.38,0,0,0,2.44,2.34,3,3,0,0,0,2.09-.85l.5.69a3.68,3.68,0,0,1-2.69,1A3.35,3.35,0,0,1,522.06,460.88Zm3.32-2.68a2.26,2.26,0,0,0-2.21,2.25h4.44A2.19,2.19,0,0,0,525.38,458.21Z"></path><path class="c" d="M530.69,464.27v-6.77h1.05v1.09a2.87,2.87,0,0,1,2.25-1.23v1.08a1.83,1.83,0,0,0-.42,0,2.47,2.47,0,0,0-1.83,1.08v4.79Z"></path><path class="c" d="M540.22,464.27v-4.43c0-1.19-.6-1.57-1.51-1.57a2.61,2.61,0,0,0-2,1.05v4.94h-1.05v-6.77h1.05v1a3.35,3.35,0,0,1,2.41-1.15,1.92,1.92,0,0,1,2.16,2.18v4.75Z"></path><path class="c" d="M548,464.27v-.77a2.93,2.93,0,0,1-2.24.94,2.25,2.25,0,0,1-2.37-2.24,2.22,2.22,0,0,1,2.37-2.23,2.83,2.83,0,0,1,2.24.92v-1.22c0-.91-.73-1.43-1.71-1.43a2.69,2.69,0,0,0-2.07.94l-.49-.73a3.54,3.54,0,0,1,2.7-1.12c1.43,0,2.62.64,2.62,2.28v4.65Zm0-1.43v-1.27a2.27,2.27,0,0,0-1.86-.84,1.49,1.49,0,1,0,0,3A2.27,2.27,0,0,0,548,462.84Z"></path><path class="c" d="M551.45,464.27v-9.34h1.05v9.34Z"></path><path class="c" d="M628.83,316v-5.84h-1.12v-.92h1.12v-.52a1.93,1.93,0,0,1,2-2.2,2,2,0,0,1,1.43.52l-.43.69a1.23,1.23,0,0,0-.84-.34c-.69,0-1.06.48-1.06,1.33v.52h1.37v.92h-1.37V316Z"></path><path class="c" d="M632.45,312.64a3.35,3.35,0,1,1,3.35,3.56A3.32,3.32,0,0,1,632.45,312.64Zm5.59,0a2.27,2.27,0,1,0-2.24,2.62A2.35,2.35,0,0,0,638,312.64Z"></path><path class="c" d="M641.2,316v-6.77h1.05v1.09a2.87,2.87,0,0,1,2.25-1.23v1.08a1.83,1.83,0,0,0-.42,0,2.47,2.47,0,0,0-1.83,1.08V316Z"></path><path class="c" d="M652,316l-1.76-5.43L648.5,316h-1.05l-2.16-6.77h1.09l1.65,5.39,1.78-5.39h.9l1.78,5.39,1.65-5.39h1.09L653.08,316Z"></path><path class="c" d="M661,316v-.77a2.93,2.93,0,0,1-2.24.94,2.25,2.25,0,0,1-2.37-2.24,2.22,2.22,0,0,1,2.37-2.23,2.83,2.83,0,0,1,2.24.92v-1.22c0-.91-.73-1.43-1.71-1.43a2.69,2.69,0,0,0-2.07.94l-.49-.73a3.54,3.54,0,0,1,2.7-1.12c1.43,0,2.62.64,2.62,2.28V316Zm0-1.43v-1.27a2.27,2.27,0,0,0-1.86-.84,1.49,1.49,0,1,0,0,3A2.27,2.27,0,0,0,661,314.6Z"></path><path class="c" d="M664.53,316v-6.77h1.05v1.09a2.87,2.87,0,0,1,2.25-1.23v1.08a1.83,1.83,0,0,0-.42,0,2.47,2.47,0,0,0-1.83,1.08V316Z"></path><path class="c" d="M674.4,316v-1a2.85,2.85,0,0,1-2.28,1.18c-1.76,0-3-1.34-3-3.54s1.23-3.56,3-3.56a2.83,2.83,0,0,1,2.28,1.19v-3.6h1.05V316Zm0-1.83v-3.07a2.54,2.54,0,0,0-2-1.09c-1.36,0-2.17,1.12-2.17,2.62s.81,2.61,2.17,2.61A2.52,2.52,0,0,0,674.4,314.19Z"></path><path class="c" d="M677.27,313.1v-.92h3.36v.92Z"></path><path class="c" d="M688.3,316l-1.76-5.43L684.77,316h-1.05l-2.16-6.77h1.09l1.65,5.39,1.78-5.39h.9l1.78,5.39,1.65-5.39h1.09L689.35,316Z"></path><path class="c" d="M692.68,312.64A3.35,3.35,0,1,1,696,316.2,3.32,3.32,0,0,1,692.68,312.64Zm5.59,0a2.27,2.27,0,1,0-2.24,2.62A2.35,2.35,0,0,0,698.27,312.64Z"></path><path class="c" d="M701.43,316v-6.77h1.05v1.09a2.87,2.87,0,0,1,2.25-1.23v1.08a1.83,1.83,0,0,0-.42,0,2.47,2.47,0,0,0-1.83,1.08V316Z"></path><path class="c" d="M711,316l-2.44-3-1.12,1.11V316H706.4v-9.34h1.05v6.18l3.56-3.6h1.33l-3,3.07,3,3.7Z"></path><path class="c" d="M713.51,312.64a3.38,3.38,0,0,1,3.33-3.54c2,0,3.25,1.6,3.25,3.63V313h-5.48a2.38,2.38,0,0,0,2.44,2.34,3,3,0,0,0,2.09-.85l.5.69a3.68,3.68,0,0,1-2.69,1A3.35,3.35,0,0,1,713.51,312.64Zm3.32-2.68a2.26,2.26,0,0,0-2.21,2.25h4.44A2.19,2.19,0,0,0,716.83,310Z"></path><path class="c" d="M722.14,316v-6.77h1.05v1.09a2.87,2.87,0,0,1,2.25-1.23v1.08a1.83,1.83,0,0,0-.42,0,2.47,2.47,0,0,0-1.83,1.08V316Z"></path><path class="c" d="M628.35,323.59a.71.71,0,1,1,1.42,0,.71.71,0,0,1-1.42,0Zm.18,8.43v-6.77h1.05V332Z"></path><path class="c" d="M632.33,332v-5.84h-1.12v-.92h1.12v-.52a1.93,1.93,0,0,1,2-2.2,2,2,0,0,1,1.43.52l-.43.69a1.23,1.23,0,0,0-.84-.34c-.69,0-1.06.48-1.06,1.33v.52h1.37v.92h-1.37V332Z"></path><path class="c" d="M639.91,328.64a3.38,3.38,0,0,1,3.33-3.54c2,0,3.25,1.6,3.25,3.63V329H641a2.38,2.38,0,0,0,2.44,2.34,3,3,0,0,0,2.09-.85l.5.69a3.68,3.68,0,0,1-2.69,1A3.35,3.35,0,0,1,639.91,328.64Zm3.32-2.68a2.26,2.26,0,0,0-2.21,2.25h4.44A2.19,2.19,0,0,0,643.23,326Z"></path><path class="c" d="M652.92,332l-2-2.77-2,2.77h-1.21l2.59-3.47-2.45-3.29H649l1.88,2.58,1.88-2.58H654l-2.45,3.29,2.61,3.47Z"></path><path class="c" d="M655.9,330.61v-4.43h-1.12v-.92h1.12v-1.85H657v1.85h1.37v.92H657v4.2c0,.5.22.87.69.87a1,1,0,0,0,.71-.28l.31.78a1.72,1.72,0,0,1-1.26.43A1.38,1.38,0,0,1,655.9,330.61Z"></path><path class="c" d="M659.77,328.64a3.38,3.38,0,0,1,3.33-3.54c2,0,3.25,1.6,3.25,3.63V329h-5.48a2.38,2.38,0,0,0,2.44,2.34,3,3,0,0,0,2.09-.85l.5.69a3.68,3.68,0,0,1-2.69,1A3.35,3.35,0,0,1,659.77,328.64Zm3.32-2.68a2.26,2.26,0,0,0-2.21,2.25h4.44A2.19,2.19,0,0,0,663.09,326Z"></path><path class="c" d="M668.39,332v-6.77h1.05v1.09a2.87,2.87,0,0,1,2.25-1.23v1.08a1.83,1.83,0,0,0-.42,0,2.47,2.47,0,0,0-1.83,1.08V332Z"></path><path class="c" d="M677.93,332V327.6c0-1.19-.6-1.57-1.51-1.57a2.61,2.61,0,0,0-2,1.05V332h-1.05v-6.77h1.05v1a3.35,3.35,0,0,1,2.41-1.15,1.92,1.92,0,0,1,2.16,2.18V332Z"></path><path class="c" d="M685.65,332v-.77a2.93,2.93,0,0,1-2.24.94A2.25,2.25,0,0,1,681,330a2.22,2.22,0,0,1,2.37-2.23,2.83,2.83,0,0,1,2.24.92v-1.22c0-.91-.73-1.43-1.71-1.43a2.69,2.69,0,0,0-2.07.94l-.49-.73a3.54,3.54,0,0,1,2.7-1.12c1.43,0,2.62.64,2.62,2.28V332Zm0-1.43v-1.27a2.27,2.27,0,0,0-1.86-.84,1.49,1.49,0,1,0,0,3A2.27,2.27,0,0,0,685.65,330.6Z"></path><path class="c" d="M689.15,332v-9.34h1.05V332Z"></path><path class="c" d="M332.45,693.31V678.64h7.22c2.68,0,4.18,1.67,4.18,3.74a3.3,3.3,0,0,1-2.55,3.37,3.61,3.61,0,0,1,2.84,3.61c0,2.27-1.52,4-4.27,4Zm8.76-10.5a1.87,1.87,0,0,0-2.07-1.92H335v3.81h4.11A1.85,1.85,0,0,0,341.21,682.82Zm.29,6.18a2,2,0,0,0-2.24-2H335V691h4.22A2,2,0,0,0,341.5,689Z"></path><path class="c" d="M353.68,693.31v-1.14a4.49,4.49,0,0,1-3.43,1.41,3.53,3.53,0,0,1-3.7-3.52,3.42,3.42,0,0,1,3.7-3.45,4.39,4.39,0,0,1,3.43,1.36v-1.58c0-1.23-1-2-2.49-2a4.35,4.35,0,0,0-3.15,1.34l-.95-1.61a6.32,6.32,0,0,1,4.47-1.72c2.35,0,4.42,1,4.42,3.85v7Zm0-2.42v-1.61a3.11,3.11,0,0,0-2.53-1.1,1.93,1.93,0,1,0,0,3.81A3.11,3.11,0,0,0,353.68,690.89Z"></path><path class="c" d="M359.4,696l1.08-1.67a4.12,4.12,0,0,0,3.37,1.36c1.52,0,3.15-.7,3.15-2.88v-1.28a4.31,4.31,0,0,1-3.41,1.76c-2.71,0-4.71-2-4.71-5.46s2-5.46,4.71-5.46a4.23,4.23,0,0,1,3.41,1.74v-1.47h2.31v10.08c0,3.83-2.84,4.86-5.46,4.86A6,6,0,0,1,359.4,696Zm7.59-6.18v-4a3.45,3.45,0,0,0-2.73-1.43c-1.83,0-3,1.36-3,3.41s1.17,3.41,3,3.41A3.45,3.45,0,0,0,367,689.86Z"></path><path class="c" d="M372.71,696l1.08-1.67a4.12,4.12,0,0,0,3.37,1.36c1.52,0,3.15-.7,3.15-2.88v-1.28a4.31,4.31,0,0,1-3.41,1.76c-2.71,0-4.71-2-4.71-5.46s2-5.46,4.71-5.46a4.23,4.23,0,0,1,3.41,1.74v-1.47h2.31v10.08c0,3.83-2.84,4.86-5.46,4.86A6,6,0,0,1,372.71,696Zm7.59-6.18v-4a3.45,3.45,0,0,0-2.73-1.43c-1.83,0-3,1.36-3,3.41s1.17,3.41,3,3.41A3.45,3.45,0,0,0,380.3,689.86Z"></path><path class="c" d="M392.65,693.31v-1.14a4.49,4.49,0,0,1-3.43,1.41,3.53,3.53,0,0,1-3.7-3.52,3.42,3.42,0,0,1,3.7-3.45,4.39,4.39,0,0,1,3.43,1.36v-1.58c0-1.23-1-2-2.49-2a4.35,4.35,0,0,0-3.15,1.34l-.95-1.61a6.32,6.32,0,0,1,4.47-1.72c2.35,0,4.42,1,4.42,3.85v7Zm0-2.42v-1.61a3.11,3.11,0,0,0-2.53-1.1,1.93,1.93,0,1,0,0,3.81A3.11,3.11,0,0,0,392.65,690.89Z"></path><path class="c" d="M398.36,696l1.08-1.67a4.12,4.12,0,0,0,3.37,1.36c1.52,0,3.15-.7,3.15-2.88v-1.28a4.31,4.31,0,0,1-3.41,1.76c-2.71,0-4.71-2-4.71-5.46s2-5.46,4.71-5.46a4.23,4.23,0,0,1,3.41,1.74v-1.47h2.31v10.08c0,3.83-2.84,4.86-5.46,4.86A6,6,0,0,1,398.36,696Zm7.59-6.18v-4a3.45,3.45,0,0,0-2.73-1.43c-1.83,0-3,1.36-3,3.41s1.17,3.41,3,3.41A3.45,3.45,0,0,0,406,689.86Z"></path><path class="c" d="M411.15,688a5.37,5.37,0,0,1,5.39-5.57c3.19,0,5.24,2.44,5.24,5.79v.55h-8.21a3.22,3.22,0,0,0,3.39,2.93,4.5,4.5,0,0,0,3-1.17L421,692a6.19,6.19,0,0,1-4.31,1.54A5.34,5.34,0,0,1,411.15,688Zm5.39-3.67a2.93,2.93,0,0,0-3,2.82h6A2.84,2.84,0,0,0,416.54,684.31Z"></path><path class="c" d="M424,686a7.4,7.4,0,0,1,7.7-7.59,6.63,6.63,0,0,1,5.9,3.3l-2.2,1.12a4.36,4.36,0,0,0-3.7-2.13,5.31,5.31,0,0,0,0,10.61,4.31,4.31,0,0,0,3.7-2.13l2.2,1.12a6.66,6.66,0,0,1-5.9,3.3A7.4,7.4,0,0,1,424,686Z"></path><path class="c" d="M440.16,693.31V678.64h2.31v14.68Z"></path><path class="c" d="M452.51,693.31v-1.14a4.49,4.49,0,0,1-3.43,1.41,3.53,3.53,0,0,1-3.7-3.52,3.42,3.42,0,0,1,3.7-3.45,4.39,4.39,0,0,1,3.43,1.36v-1.58c0-1.23-1-2-2.49-2a4.35,4.35,0,0,0-3.15,1.34l-.95-1.61a6.32,6.32,0,0,1,4.47-1.72c2.35,0,4.42,1,4.42,3.85v7Zm0-2.42v-1.61a3.11,3.11,0,0,0-2.53-1.1,1.93,1.93,0,1,0,0,3.81A3.11,3.11,0,0,0,452.51,690.89Z"></path><path class="c" d="M458.07,680a1.44,1.44,0,0,1,1.43-1.43,1.43,1.43,0,0,1,0,2.86A1.44,1.44,0,0,1,458.07,680Zm.29,13.36V682.68h2.31v10.63Z"></path><path class="c" d="M477.24,693.31v-6.93c0-1.14-.51-1.92-1.74-1.92a3.23,3.23,0,0,0-2.46,1.41v7.44h-2.31v-6.93c0-1.14-.51-1.92-1.76-1.92a3.22,3.22,0,0,0-2.44,1.43v7.42h-2.31V682.68h2.31v1.45a4.59,4.59,0,0,1,3.45-1.72,2.77,2.77,0,0,1,2.9,2,4.51,4.51,0,0,1,3.61-2c2,0,3.06,1.06,3.06,3.21v7.68Z"></path><path class="c" d="M383.3,702h1.26l1.37,8.07,4.94-8.07h1.39l-5.83,9.34H385Z"></path><path class="c" d="M394.92,704.38a2.86,2.86,0,0,1,3.1,3,4,4,0,0,1-3.77,4.09,2.84,2.84,0,0,1-3.1-3A4,4,0,0,1,394.92,704.38Zm0,.94a2.93,2.93,0,0,0-2.63,3.12,1.91,1.91,0,0,0,2,2.1,2.93,2.93,0,0,0,2.63-3.12A1.91,1.91,0,0,0,394.89,705.32Z"></path><path class="c" d="M401.31,702h1.05l-2.06,9.34h-1.05Z"></path><path class="c" d="M404.31,709a2.76,2.76,0,0,0-.07.48c0,.79.6,1.09,1.4,1.09a3.25,3.25,0,0,0,2.09-1.06l1.08-4.93h1.05l-1.5,6.77h-1.05l.22-1a3.61,3.61,0,0,1-2.38,1.15c-1.2,0-2-.59-2-1.68a4.05,4.05,0,0,1,.07-.56l1-4.69h1.05Z"></path><path class="c" d="M420,706.77a2,2,0,0,0,.06-.41,1.06,1.06,0,0,0-1.15-1.05,2.74,2.74,0,0,0-1.85,1.06l-1.09,4.93h-1.05l1-4.54a2.6,2.6,0,0,0,.06-.49c0-.53-.41-1-1.18-1a2.76,2.76,0,0,0-1.82,1.06l-1.09,4.93h-1.05l1.5-6.77h1.05l-.22,1a3,3,0,0,1,2.13-1.15,1.61,1.61,0,0,1,1.74,1.25v0a3.2,3.2,0,0,1,2.35-1.29,1.66,1.66,0,0,1,1.78,1.68,4,4,0,0,1-.07.56l-1,4.69h-1Z"></path><path class="c" d="M426.55,704.38a2.78,2.78,0,0,1,2.91,3,5.21,5.21,0,0,1-.11.94h-5.52c0,.06,0,.22,0,.32a2.06,2.06,0,0,0,2.3,2,3.23,3.23,0,0,0,1.95-.66l.35.73a4,4,0,0,1-2.37.8c-2.06,0-3.31-1.19-3.31-3A4,4,0,0,1,426.55,704.38Zm2,2.86a1.89,1.89,0,0,0-2.06-2,2.68,2.68,0,0,0-2.51,2.25h4.54A1.57,1.57,0,0,0,428.51,707.24Z"></path><path class="c" d="M360.53,719.37l-4.93,7.94h-.48l-1.43-7.94L352,727.31h-1.16l2.06-9.34h1.61l1.3,7.28,4.51-7.28H362l-2.06,9.34h-1.16Z"></path><path class="c" d="M368.83,720.55h1.05l-1.5,6.77h-1l.21-1a2.81,2.81,0,0,1-2.23,1.13,2.52,2.52,0,0,1-2.62-2.79c0-2.2,1.36-4.31,3.54-4.31a2.68,2.68,0,0,1,2.35,1.23Zm-3.14,6a2.62,2.62,0,0,0,2.06-1.15l.67-3a2.29,2.29,0,0,0-2-1.09c-1.54,0-2.58,1.55-2.58,3.18A1.85,1.85,0,0,0,365.69,726.54Z"></path><path class="c" d="M376.37,722.87a2.25,2.25,0,0,0,.08-.46c0-.79-.6-1.09-1.33-1.09a3.14,3.14,0,0,0-2.16,1.06l-1.09,4.93h-1.05l1.5-6.77h1.05l-.22,1a3.64,3.64,0,0,1,2.4-1.15c1.19,0,2,.59,2,1.68a2.66,2.66,0,0,1-.08.56l-1,4.69h-1.05Z"></path><path class="c" d="M385.29,720.55h1.05l-1.5,6.77h-1l.21-1a2.81,2.81,0,0,1-2.23,1.13,2.52,2.52,0,0,1-2.62-2.79c0-2.2,1.36-4.31,3.54-4.31a2.68,2.68,0,0,1,2.35,1.23Zm-3.14,6a2.62,2.62,0,0,0,2.06-1.15l.67-3a2.29,2.29,0,0,0-2-1.09c-1.54,0-2.58,1.55-2.58,3.18A1.85,1.85,0,0,0,382.15,726.54Z"></path><path class="c" d="M387.61,728.19a2.7,2.7,0,0,0,2.34,1c1,0,1.92-.52,2.27-2.07l.2-.88a2.91,2.91,0,0,1-2.3,1.15,2.49,2.49,0,0,1-2.58-2.8c0-2.13,1.34-4.2,3.53-4.2a3,3,0,0,1,2.37,1.23l.24-1.06h1.05l-1.46,6.57c-.49,2.23-1.85,2.94-3.31,2.94a3.59,3.59,0,0,1-3-1.15Zm5.65-5.76a2.38,2.38,0,0,0-2.1-1.12c-1.54,0-2.51,1.54-2.51,3.1a1.83,1.83,0,0,0,1.89,2,2.89,2.89,0,0,0,2.07-1.08Z"></path><path class="c" d="M399.75,720.38a2.78,2.78,0,0,1,2.91,3,5.21,5.21,0,0,1-.11.94H397c0,.06,0,.22,0,.32a2.06,2.06,0,0,0,2.3,2,3.23,3.23,0,0,0,1.95-.66l.35.73a4,4,0,0,1-2.37.8c-2.06,0-3.31-1.19-3.31-3A4,4,0,0,1,399.75,720.38Zm2,2.86a1.89,1.89,0,0,0-2.06-2,2.68,2.68,0,0,0-2.51,2.25h4.54A1.57,1.57,0,0,0,401.71,723.24Z"></path><path class="c" d="M413.07,722.77a2,2,0,0,0,.06-.41,1.06,1.06,0,0,0-1.15-1.05,2.74,2.74,0,0,0-1.85,1.06L409,727.31H408l1-4.54a2.6,2.6,0,0,0,.06-.49c0-.53-.41-1-1.18-1a2.76,2.76,0,0,0-1.82,1.06L405,727.31h-1.05l1.5-6.77h1.05l-.22,1a3,3,0,0,1,2.13-1.15,1.61,1.61,0,0,1,1.74,1.25v0a3.2,3.2,0,0,1,2.35-1.29,1.66,1.66,0,0,1,1.78,1.68,4,4,0,0,1-.07.56l-1,4.69h-1Z"></path><path class="c" d="M419.65,720.38a2.78,2.78,0,0,1,2.91,3,5.21,5.21,0,0,1-.11.94h-5.52c0,.06,0,.22,0,.32a2.06,2.06,0,0,0,2.3,2,3.23,3.23,0,0,0,1.95-.66l.35.73a4,4,0,0,1-2.37.8c-2.06,0-3.31-1.19-3.31-3A4,4,0,0,1,419.65,720.38Zm2,2.86a1.89,1.89,0,0,0-2.06-2A2.68,2.68,0,0,0,417,723.5h4.54A1.57,1.57,0,0,0,421.61,723.24Z"></path><path class="c" d="M429.35,722.87a2.25,2.25,0,0,0,.08-.46c0-.79-.6-1.09-1.33-1.09a3.14,3.14,0,0,0-2.16,1.06l-1.09,4.93H423.8l1.5-6.77h1.05l-.22,1a3.64,3.64,0,0,1,2.4-1.15c1.19,0,2,.59,2,1.68a2.66,2.66,0,0,1-.08.56l-1,4.69h-1.05Z"></path><path class="c" d="M432.4,725.85l1-4.4h-1.12l.21-.91h1.12l.41-1.85H435l-.41,1.85H436l-.21.91h-1.37l-.92,4.17a1.76,1.76,0,0,0,0,.28c0,.41.22.63.67.63a1,1,0,0,0,.64-.22l.13.84a1.68,1.68,0,0,1-1,.32c-.94,0-1.54-.39-1.54-1.23A2.59,2.59,0,0,1,432.4,725.85Z"></path><path class="c" d="M446.74,725.24H442l-1.27,2.07h-1.34l5.81-9.34h1.44l1.71,9.34H447.1Zm-4.16-1h4l-.9-5.16Z"></path><path class="c" d="M452,718h3.47a2.42,2.42,0,0,1,2.59,2.42,3.22,3.22,0,0,1-3.57,3.21h-2.58l-.81,3.71H449.9Zm4.85,2.51a1.49,1.49,0,0,0-1.55-1.47h-2.35l-.8,3.56h2.45A2.06,2.06,0,0,0,456.8,720.48Z"></path><path class="c" d="M460.52,718h1.16l-2.06,9.34h-1.16Z"></path><rect class="b" x="63.5" y="881.66" width="180.48" height="45.45" rx="5" ry="5"></rect><path class="c" d="M84.9,908.8v-4.45c0-1.19-.62-1.54-1.53-1.54a2.66,2.66,0,0,0-2,1.05v4.94H80.32v-9.34h1.05V903a3.36,3.36,0,0,1,2.42-1.15A1.9,1.9,0,0,1,85.95,904v4.78Z"></path><path class="c" d="M89.45,907.78v3.6H88.4V902h1.05v1a2.83,2.83,0,0,1,2.28-1.18c1.78,0,3,1.34,3,3.54s-1.23,3.56-3,3.56A2.77,2.77,0,0,1,89.45,907.78Zm4.19-2.37c0-1.5-.81-2.61-2.17-2.61a2.5,2.5,0,0,0-2,1.08v3.05a2.51,2.51,0,0,0,2,1.09C92.82,908,93.63,906.91,93.63,905.41Z"></path><path class="c" d="M96.46,908.8v-.92c3.36-2.65,5.18-4.2,5.18-5.81a1.75,1.75,0,0,0-1.95-1.71,3.12,3.12,0,0,0-2.54,1.18l-.71-.74a4,4,0,0,1,3.25-1.47c1.55,0,3.14.88,3.14,2.75s-1.93,3.64-4.54,5.7h4.58v1Z"></path><path class="c" d="M106.39,907.78v3.6h-1.05V902h1.05v1a2.83,2.83,0,0,1,2.28-1.18c1.78,0,3,1.34,3,3.54s-1.23,3.56-3,3.56A2.77,2.77,0,0,1,106.39,907.78Zm4.19-2.37c0-1.5-.81-2.61-2.17-2.61a2.5,2.5,0,0,0-2,1.08v3.05a2.51,2.51,0,0,0,2,1.09C109.76,908,110.57,906.91,110.57,905.41Z"></path><path class="c" d="M111.26,911l.38-.8a1.34,1.34,0,0,0,1,.43c.63,0,1.09-.36,1.09-1.22V902h1.05v7.42a1.85,1.85,0,0,1-2,2.09A2.12,2.12,0,0,1,111.26,911Zm2.25-10.67a.71.71,0,1,1,1.42,0,.71.71,0,0,1-1.42,0Z"></path><path class="c" d="M115.4,911l.38-.8a1.34,1.34,0,0,0,1,.43c.63,0,1.09-.36,1.09-1.22V902h1.05v7.42a1.85,1.85,0,0,1-2,2.09A2.12,2.12,0,0,1,115.4,911Zm2.25-10.67a.71.71,0,1,1,1.42,0,.71.71,0,0,1-1.42,0Z"></path><path class="c" d="M121,904.15c0-2.54,1.18-4.83,3.8-4.83a3.25,3.25,0,0,1,2.59,1.12l-.59.87a2.39,2.39,0,0,0-2-1c-1.81,0-2.63,1.83-2.63,3.67a3.24,3.24,0,0,0,0,.36,3.36,3.36,0,0,1,2.65-1.46,2.82,2.82,0,0,1,3.05,3A3.07,3.07,0,0,1,124.6,909C122,909,121,906.69,121,904.15Zm5.7,1.81a1.93,1.93,0,0,0-2.16-2,2.87,2.87,0,0,0-2.34,1.4c.11,1.16.73,2.59,2.35,2.59A2,2,0,0,0,126.7,906Z"></path><path class="c" d="M129.57,905.41a3.35,3.35,0,1,1,3.35,3.56A3.32,3.32,0,0,1,129.57,905.41Zm5.59,0a2.27,2.27,0,1,0-2.24,2.62A2.35,2.35,0,0,0,135.16,905.41Z"></path><path class="c" d="M139.76,908.8V901l-1.5,1.58-.7-.71,2.34-2.41h1v9.34Z"></path><path class="c" d="M151.58,908.8v-4.59c0-.85-.38-1.4-1.25-1.4a2.36,2.36,0,0,0-1.79,1v5h-1.05v-4.59c0-.85-.36-1.4-1.25-1.4a2.36,2.36,0,0,0-1.78,1.05v4.94h-1.05V902h1.05v1a2.92,2.92,0,0,1,2.18-1.15,1.74,1.74,0,0,1,1.82,1.26,2.85,2.85,0,0,1,2.27-1.26c1.23,0,1.89.69,1.89,2v4.89Z"></path><path class="c" d="M163.24,908.8v-4.59c0-.85-.38-1.4-1.25-1.4a2.36,2.36,0,0,0-1.79,1v5h-1.05v-4.59c0-.85-.36-1.4-1.25-1.4a2.36,2.36,0,0,0-1.78,1.05v4.94h-1.05V902h1.05v1a2.92,2.92,0,0,1,2.18-1.15,1.74,1.74,0,0,1,1.82,1.26,2.85,2.85,0,0,1,2.27-1.26c1.23,0,1.89.69,1.89,2v4.89Z"></path><line class="d" x1="279.99" y1="620.35" x2="279.99" y2="951.65"></line><rect class="a" x="29.85" y="232.78" width="500.28" height="166.5" rx="5" ry="5"></rect><rect class="b" x="316" y="255" width="180.48" height="122.05" rx="5" ry="5"></rect><rect class="b" x="63.5" y="255" width="180.48" height="122.05" rx="5" ry="5"></rect><path class="c" d="M139.57,306.33l-1.08-2.82h-6.73l-1.08,2.82h-2.93l5.76-14.68h3.21l5.76,14.68Zm-4.44-12.08-2.64,7h5.28Z"></path><path class="c" d="M146.72,306.33V293.92h-4.44v-2.27h11.46v2.27h-4.45v12.41Z"></path><path class="c" d="M155.25,299a7.4,7.4,0,0,1,7.7-7.59,6.63,6.63,0,0,1,5.9,3.3l-2.2,1.12a4.36,4.36,0,0,0-3.7-2.13,5.31,5.31,0,0,0,0,10.61,4.31,4.31,0,0,0,3.7-2.13l2.2,1.12a6.66,6.66,0,0,1-5.9,3.3A7.4,7.4,0,0,1,155.25,299Z"></path><path class="c" d="M116,316.8l-3.73,7.54h-1.26l-.6-9.34h1.26l.34,7.79,3.87-7.79h1l.41,7.79,3.8-7.79h1.32l-4.72,9.34h-1.26Z"></path><path class="c" d="M125.48,317.4a2.78,2.78,0,0,1,2.91,3,5.21,5.21,0,0,1-.11.94h-5.52c0,.06,0,.22,0,.32a2.06,2.06,0,0,0,2.3,2A3.23,3.23,0,0,0,127,323l.35.73a4,4,0,0,1-2.37.8c-2.06,0-3.31-1.19-3.31-3A4,4,0,0,1,125.48,317.4Zm2,2.86a1.89,1.89,0,0,0-2.06-2,2.68,2.68,0,0,0-2.51,2.25h4.54A1.57,1.57,0,0,0,127.44,320.26Z"></path><path class="c" d="M130.68,324.33h-1.05l2.06-9.34h1.05l-.79,3.54a2.85,2.85,0,0,1,2.24-1.13,2.53,2.53,0,0,1,2.62,2.79c0,2.2-1.37,4.31-3.54,4.31a2.66,2.66,0,0,1-2.35-1.23Zm3.14-6a2.66,2.66,0,0,0-2.07,1.16l-.66,3a2.26,2.26,0,0,0,2,1.09c1.54,0,2.58-1.55,2.58-3.18A1.85,1.85,0,0,0,133.82,318.34Z"></path><path class="c" d="M142.78,321.39a5.58,5.58,0,0,1,.08-.84L144.1,315h1.16l-1.2,5.52a3,3,0,0,0-.1.78,2.13,2.13,0,0,0,2.41,2.17c1.75,0,2.55-1.06,2.93-2.79l1.26-5.69h1.16l-1.25,5.7c-.52,2.3-1.57,3.81-4.15,3.81C144.1,324.5,142.78,323.28,142.78,321.39Z"></path><path class="c" d="M154.25,315h1.16l-2.06,9.34h-1.16Z"></path><path class="c" d="M155.3,325.57a2.4,2.4,0,0,0,1.18-1.18h-.11a.59.59,0,0,1-.6-.62.86.86,0,0,1,.84-.84.74.74,0,0,1,.74.83,2.89,2.89,0,0,1-1.61,2.27Z"></path><path class="c" d="M169.82,322.26h-4.75l-1.27,2.07h-1.34l5.81-9.34h1.44l1.71,9.34h-1.23Zm-4.16-1h4l-.9-5.16Z"></path><path class="c" d="M175,315h3.47a2.42,2.42,0,0,1,2.59,2.42,3.22,3.22,0,0,1-3.57,3.21H175l-.81,3.71H173Zm4.85,2.51a1.49,1.49,0,0,0-1.55-1.47H176l-.8,3.56h2.45A2.06,2.06,0,0,0,179.88,317.5Z"></path><path class="c" d="M183.6,315h1.16l-2.06,9.34h-1.16Z"></path><path class="c" d="M184.65,325.57a2.4,2.4,0,0,0,1.18-1.18h-.11a.59.59,0,0,1-.6-.62.86.86,0,0,1,.84-.84.74.74,0,0,1,.74.83,2.89,2.89,0,0,1-1.61,2.27Z"></path><path class="c" d="M90.5,333H94a2.42,2.42,0,0,1,2.59,2.42A3.22,3.22,0,0,1,93,338.62H90.42l-.81,3.71H88.44Zm4.85,2.51A1.49,1.49,0,0,0,93.79,334H91.44l-.8,3.56h2.45A2.06,2.06,0,0,0,95.35,335.5Z"></path><path class="c" d="M98.46,335.57h1.05L98,342.33H97Zm1-2.55a.63.63,0,0,1,.64.62.81.81,0,0,1-.8.8.63.63,0,0,1-.64-.62A.81.81,0,0,1,99.46,333Z"></path><path class="c" d="M100.94,344.91H99.89l2.07-9.34H103l-.22,1A2.85,2.85,0,0,1,105,335.4a2.53,2.53,0,0,1,2.62,2.79c0,2.2-1.37,4.31-3.54,4.31a2.66,2.66,0,0,1-2.35-1.23Zm3.71-8.57a2.66,2.66,0,0,0-2.07,1.16l-.66,3a2.26,2.26,0,0,0,2,1.09c1.54,0,2.58-1.55,2.58-3.18A1.85,1.85,0,0,0,104.65,336.34Z"></path><path class="c" d="M112.9,335.4a2.78,2.78,0,0,1,2.91,3,5.21,5.21,0,0,1-.11.94h-5.52c0,.06,0,.22,0,.32a2.06,2.06,0,0,0,2.3,2,3.23,3.23,0,0,0,1.95-.66l.35.73a4,4,0,0,1-2.37.8c-2.06,0-3.31-1.19-3.31-3A4,4,0,0,1,112.9,335.4Zm2,2.86a1.89,1.89,0,0,0-2.06-2,2.68,2.68,0,0,0-2.51,2.25h4.54A1.57,1.57,0,0,0,114.86,338.26Z"></path><path class="c" d="M119.11,333h1.05l-2.06,9.34h-1.05Z"></path><path class="c" d="M122.05,335.57h1.05l-1.5,6.77h-1.05Zm1-2.55a.63.63,0,0,1,.64.62.81.81,0,0,1-.8.8.63.63,0,0,1-.64-.62A.81.81,0,0,1,123,333Z"></path><path class="c" d="M129.6,337.89a2.25,2.25,0,0,0,.08-.46c0-.79-.6-1.09-1.33-1.09a3.14,3.14,0,0,0-2.16,1.06l-1.09,4.93h-1.05l1.5-6.77h1.05l-.22,1a3.64,3.64,0,0,1,2.4-1.15c1.19,0,2,.59,2,1.68a2.66,2.66,0,0,1-.08.56l-1,4.69h-1.05Z"></path><path class="c" d="M136.19,335.4a2.78,2.78,0,0,1,2.91,3,5.21,5.21,0,0,1-.11.94h-5.52c0,.06,0,.22,0,.32a2.06,2.06,0,0,0,2.3,2,3.23,3.23,0,0,0,1.95-.66l.35.73a4,4,0,0,1-2.37.8c-2.06,0-3.31-1.19-3.31-3A4,4,0,0,1,136.19,335.4Zm2,2.86a1.89,1.89,0,0,0-2.06-2,2.68,2.68,0,0,0-2.51,2.25h4.54A1.57,1.57,0,0,0,138.16,338.26Z"></path><path class="c" d="M145,340a3.74,3.74,0,0,0,3.08,1.47,1.83,1.83,0,0,0,2.06-1.74c0-.84-1-1.23-2-1.64-1.26-.5-2.66-1.06-2.66-2.52s1.37-2.72,3.31-2.72a4.13,4.13,0,0,1,3.38,1.47l-.8.81a3.31,3.31,0,0,0-2.7-1.26,1.79,1.79,0,0,0-1.93,1.54c0,.74.91,1.12,1.92,1.53,1.27.52,2.72,1.11,2.72,2.61a3.1,3.1,0,0,1-3.4,3,4.61,4.61,0,0,1-3.78-1.67Z"></path><path class="c" d="M156.94,335.4a2.75,2.75,0,0,1,2.54,1.26l-.8.6a1.91,1.91,0,0,0-1.71-.92,2.9,2.9,0,0,0-2.75,3.12,2,2,0,0,0,2.11,2.1,2.28,2.28,0,0,0,1.71-.8l.6.7a3.23,3.23,0,0,1-2.41,1,2.88,2.88,0,0,1-3.11-3A3.94,3.94,0,0,1,156.94,335.4Z"></path><path class="c" d="M165.69,337.89a2.91,2.91,0,0,0,.08-.46c0-.79-.6-1.09-1.4-1.09a3.14,3.14,0,0,0-2.09,1.08l-1.09,4.92h-1.05l2.06-9.34h1.05l-.79,3.56a3.64,3.64,0,0,1,2.4-1.15c1.19,0,2,.59,2,1.68a2.8,2.8,0,0,1-.08.56l-1,4.69h-1Z"></path><path class="c" d="M172.3,335.4a2.78,2.78,0,0,1,2.91,3,5.21,5.21,0,0,1-.11.94h-5.52c0,.06,0,.22,0,.32a2.06,2.06,0,0,0,2.3,2,3.23,3.23,0,0,0,1.95-.66l.35.73a4,4,0,0,1-2.37.8c-2.06,0-3.31-1.19-3.31-3A4,4,0,0,1,172.3,335.4Zm2,2.86a1.89,1.89,0,0,0-2.06-2,2.68,2.68,0,0,0-2.51,2.25h4.54A1.57,1.57,0,0,0,174.26,338.26Z"></path><path class="c" d="M183.43,333h1.05l-2.07,9.34h-1l.21-1a2.81,2.81,0,0,1-2.23,1.13,2.52,2.52,0,0,1-2.62-2.79c0-2.2,1.36-4.31,3.54-4.31a2.68,2.68,0,0,1,2.35,1.23Zm-3.71,8.57a2.62,2.62,0,0,0,2.06-1.15l.67-3a2.29,2.29,0,0,0-2-1.09c-1.54,0-2.58,1.55-2.58,3.18A1.85,1.85,0,0,0,179.72,341.56Z"></path><path class="c" d="M186.43,340a2.76,2.76,0,0,0-.07.48c0,.79.6,1.09,1.4,1.09a3.25,3.25,0,0,0,2.09-1.06l1.08-4.93H192l-1.5,6.77h-1.05l.22-1a3.61,3.61,0,0,1-2.38,1.15c-1.2,0-2-.59-2-1.68a4.05,4.05,0,0,1,.07-.56l1-4.69h1.05Z"></path><path class="c" d="M195,333H196L194,342.33h-1.05Z"></path><path class="c" d="M200.5,335.4a2.78,2.78,0,0,1,2.91,3,5.21,5.21,0,0,1-.11.94h-5.52c0,.06,0,.22,0,.32a2.06,2.06,0,0,0,2.3,2A3.23,3.23,0,0,0,202,341l.35.73a4,4,0,0,1-2.37.8c-2.06,0-3.31-1.19-3.31-3A4,4,0,0,1,200.5,335.4Zm2,2.86a1.89,1.89,0,0,0-2.06-2,2.68,2.68,0,0,0-2.51,2.25h4.54A1.57,1.57,0,0,0,202.46,338.26Z"></path><path class="c" d="M206.15,335.57h1.05l-.24,1a3,3,0,0,1,2.52-1.18l-.24,1.08a2.07,2.07,0,0,0-.53-.06,2.64,2.64,0,0,0-2,1.11l-1.05,4.78h-1.05Z"></path><path class="c" d="M18.34,629.21,7.51,632.07l10.83,2.84v2.75l-14.68,4.2V639L15,636.12l-11.31-3v-2L15,628,3.66,625.16v-2.88l14.68,4.18Z"></path><path class="c" d="M11,621.11a7.5,7.5,0,1,1,0-15,7.5,7.5,0,1,1,0,15Zm0-12.37c-3,0-5.3,1.91-5.3,4.86S8,618.47,11,618.47s5.3-1.89,5.3-4.86S14,608.75,11,608.75Z"></path><path class="c" d="M18.34,594.69l-5.48,3.26v2.55h5.48v2.57H3.66v-6.45a4.45,4.45,0,0,1,4.6-4.8,4.12,4.12,0,0,1,4.31,3.48l5.76-3.59Zm-10.08-.22A2.31,2.31,0,0,0,5.93,597v3.52h4.67V597A2.31,2.31,0,0,0,8.26,594.47Z"></path><path class="c" d="M18.34,579.93l-6.18,4.93,1.5,1.28h4.69v2.57H3.66v-2.57h7l-7-5.74V577.2l6.93,6,7.75-6.4Z"></path><path class="c" d="M18.34,574.5H3.66V564.44H5.93v7.48H9.73v-7.33H12v7.33h4.07v-7.48h2.27Z"></path><path class="c" d="M18.34,552.87l-5.48,3.26v2.55h5.48v2.57H3.66v-6.45a4.45,4.45,0,0,1,4.6-4.8,4.12,4.12,0,0,1,4.31,3.48l5.76-3.59Zm-10.08-.22a2.31,2.31,0,0,0-2.33,2.51v3.52h4.67v-3.52A2.31,2.31,0,0,0,8.26,552.65Z"></path><path class="c" d="M18.34,268.66,7.51,271.52l10.83,2.84v2.75l-14.68,4.2v-2.88L15,275.57l-11.31-3v-2l11.31-3L3.66,264.61v-2.88l14.68,4.18Z"></path><path class="c" d="M18.34,259.46H3.66V249.41H5.93v7.48H9.73v-7.33H12v7.33h4.07v-7.48h2.27Z"></path><path class="c" d="M18.34,246.22H3.66V239c0-2.68,1.67-4.18,3.74-4.18a3.3,3.3,0,0,1,3.37,2.55,3.61,3.61,0,0,1,3.61-2.84c2.27,0,4,1.52,4,4.27Zm-10.5-8.76a1.87,1.87,0,0,0-1.92,2.07v4.11H9.73v-4.11A1.85,1.85,0,0,0,7.84,237.46Zm6.18-.29a2,2,0,0,0-2,2.24v4.22h4.07v-4.22A2,2,0,0,0,14,237.18Z"></path><path class="c" d="M390.36,306.33V293.92h-4.44v-2.27h11.46v2.27h-4.45v12.41Z"></path><path class="c" d="M399,304.27l1.43-2a6.33,6.33,0,0,0,4.64,2c2.11,0,2.95-1,2.95-2,0-3.08-8.56-1.17-8.56-6.58,0-2.42,2.13-4.29,5.35-4.29a7.64,7.64,0,0,1,5.5,2l-1.47,1.91a6,6,0,0,0-4.25-1.67c-1.52,0-2.49.73-2.49,1.83,0,2.73,8.54,1,8.54,6.51,0,2.44-1.72,4.53-5.68,4.53A7.85,7.85,0,0,1,399,304.27Z"></path><path class="c" d="M423.67,306.33l-1.08-2.82h-6.73l-1.08,2.82h-2.93l5.76-14.68h3.21l5.76,14.68Zm-4.45-12.08-2.64,7h5.28Z"></path><path class="c" d="M359.48,322a3.74,3.74,0,0,0,3.08,1.47,1.83,1.83,0,0,0,2.06-1.74c0-.84-1-1.23-2-1.64-1.26-.5-2.66-1.06-2.66-2.52s1.37-2.72,3.31-2.72a4.13,4.13,0,0,1,3.38,1.47l-.8.81a3.31,3.31,0,0,0-2.7-1.26,1.79,1.79,0,0,0-1.93,1.54c0,.74.91,1.12,1.92,1.53,1.27.52,2.72,1.11,2.72,2.61a3.1,3.1,0,0,1-3.4,3,4.61,4.61,0,0,1-3.78-1.67Z"></path><path class="c" d="M371.38,317.4a2.78,2.78,0,0,1,2.91,3,5.21,5.21,0,0,1-.11.94h-5.52c0,.06,0,.22,0,.32a2.06,2.06,0,0,0,2.3,2,3.23,3.23,0,0,0,1.95-.66l.35.73a4,4,0,0,1-2.37.8c-2.06,0-3.31-1.19-3.31-3A4,4,0,0,1,371.38,317.4Zm2,2.86a1.89,1.89,0,0,0-2.06-2,2.68,2.68,0,0,0-2.51,2.25h4.54A1.57,1.57,0,0,0,373.34,320.26Z"></path><path class="c" d="M379.61,317.4a2.75,2.75,0,0,1,2.54,1.26l-.8.6a1.91,1.91,0,0,0-1.71-.92,2.9,2.9,0,0,0-2.75,3.12,2,2,0,0,0,2.11,2.1,2.28,2.28,0,0,0,1.71-.8l.6.7a3.23,3.23,0,0,1-2.41,1,2.88,2.88,0,0,1-3.11-3A3.94,3.94,0,0,1,379.61,317.4Z"></path><path class="c" d="M384.39,322a2.76,2.76,0,0,0-.07.48c0,.79.6,1.09,1.4,1.09a3.25,3.25,0,0,0,2.09-1.06l1.08-4.93h1.05l-1.5,6.77h-1.05l.22-1a3.61,3.61,0,0,1-2.38,1.15c-1.2,0-2-.59-2-1.68a4.05,4.05,0,0,1,.07-.56l1-4.69h1.05Z"></path><path class="c" d="M392.38,317.57h1.05l-.24,1a3,3,0,0,1,2.52-1.18l-.24,1.08a2.07,2.07,0,0,0-.53-.06,2.64,2.64,0,0,0-2,1.11l-1.05,4.78h-1.05Z"></path><path class="c" d="M399.93,317.4a2.78,2.78,0,0,1,2.91,3,5.21,5.21,0,0,1-.11.94h-5.52c0,.06,0,.22,0,.32a2.06,2.06,0,0,0,2.3,2,3.23,3.23,0,0,0,1.95-.66l.35.73a4,4,0,0,1-2.37.8c-2.06,0-3.31-1.19-3.31-3A4,4,0,0,1,399.93,317.4Zm2,2.86a1.89,1.89,0,0,0-2.06-2,2.68,2.68,0,0,0-2.51,2.25h4.54A1.57,1.57,0,0,0,401.89,320.26Z"></path><path class="c" d="M414.84,316.8l-3.73,7.54h-1.26l-.6-9.34h1.26l.34,7.79,3.87-7.79h1l.41,7.79,3.8-7.79h1.32l-4.72,9.34h-1.26Z"></path><path class="c" d="M424.23,317.4a2.86,2.86,0,0,1,3.1,3,4,4,0,0,1-3.77,4.09,2.84,2.84,0,0,1-3.1-3A4,4,0,0,1,424.23,317.4Zm0,.94a2.93,2.93,0,0,0-2.63,3.12,1.91,1.91,0,0,0,2,2.1,2.93,2.93,0,0,0,2.63-3.12A1.91,1.91,0,0,0,424.2,318.34Z"></path><path class="c" d="M430.05,317.57h1.05l-.24,1a3,3,0,0,1,2.52-1.18l-.24,1.08a2.07,2.07,0,0,0-.53-.06,2.64,2.64,0,0,0-2,1.11l-1.05,4.78h-1.05Z"></path><path class="c" d="M436.41,321.25,435,322.4l-.42,1.93h-1.05l2.06-9.34h1.05l-1.34,6.12,4.29-3.54H441l-3.68,3.07,2.2,3.7H438.2Z"></path><path class="c" d="M445,317.4a2.78,2.78,0,0,1,2.91,3,5.21,5.21,0,0,1-.11.94h-5.52c0,.06,0,.22,0,.32a2.06,2.06,0,0,0,2.3,2,3.23,3.23,0,0,0,1.95-.66l.35.73a4,4,0,0,1-2.37.8c-2.06,0-3.31-1.19-3.31-3A4,4,0,0,1,445,317.4Zm2,2.86a1.89,1.89,0,0,0-2.06-2,2.68,2.68,0,0,0-2.51,2.25h4.54A1.57,1.57,0,0,0,447,320.26Z"></path><path class="c" d="M450.65,317.57h1.05l-.24,1a3,3,0,0,1,2.52-1.18l-.24,1.08a2.07,2.07,0,0,0-.53-.06,2.64,2.64,0,0,0-2,1.11l-1.05,4.78h-1.05Z"></path><path class="c" d="M371.54,338.62h-2l-.8,3.71h-1.16l2.06-9.34h3.43a2.5,2.5,0,0,1,2.65,2.44,3.08,3.08,0,0,1-3,3.14l1.68,3.77H373.1Zm3-3.1a1.55,1.55,0,0,0-1.58-1.5h-2.33l-.8,3.57h2.47A2,2,0,0,0,374.52,335.53Z"></path><path class="c" d="M380.17,335.4a2.78,2.78,0,0,1,2.91,3,5.21,5.21,0,0,1-.11.94h-5.52c0,.06,0,.22,0,.32a2.06,2.06,0,0,0,2.3,2,3.23,3.23,0,0,0,1.95-.66l.35.73a4,4,0,0,1-2.37.8c-2.06,0-3.31-1.19-3.31-3A4,4,0,0,1,380.17,335.4Zm2,2.86a1.89,1.89,0,0,0-2.06-2,2.68,2.68,0,0,0-2.51,2.25h4.54A1.57,1.57,0,0,0,382.13,338.26Z"></path><path class="c" d="M384.65,343.22a2.7,2.7,0,0,0,2.34,1c1,0,1.92-.52,2.27-2.07l.2-.88a2.91,2.91,0,0,1-2.3,1.15,2.49,2.49,0,0,1-2.58-2.8c0-2.13,1.34-4.2,3.53-4.2a3,3,0,0,1,2.37,1.23l.24-1.06h1.05l-1.46,6.57c-.49,2.23-1.85,2.94-3.31,2.94a3.59,3.59,0,0,1-3-1.15Zm5.65-5.76a2.38,2.38,0,0,0-2.1-1.12c-1.54,0-2.51,1.54-2.51,3.1a1.83,1.83,0,0,0,1.89,2,2.89,2.89,0,0,0,2.07-1.08Z"></path><path class="c" d="M394.21,335.57h1.05l-1.5,6.77h-1.05Zm1-2.55a.63.63,0,0,1,.64.62.81.81,0,0,1-.8.8.63.63,0,0,1-.64-.62A.81.81,0,0,1,395.21,333Z"></path><path class="c" d="M396.62,340.6a2.85,2.85,0,0,0,2.26,1.05c1,0,1.55-.57,1.55-1.19s-.71-.85-1.5-1.16c-1-.38-2.06-.78-2.06-1.83s.91-2.06,2.56-2.06a3.24,3.24,0,0,1,2.58,1.11l-.6.69a2.52,2.52,0,0,0-2-.94c-.91,0-1.46.46-1.46,1s.69.8,1.44,1.09c1,.36,2.11.8,2.11,1.91a2.37,2.37,0,0,1-2.66,2.21,3.55,3.55,0,0,1-2.86-1.19Z"></path><path class="c" d="M403.61,340.88l1-4.4h-1.12l.21-.91h1.12l.41-1.85h1.05l-.41,1.85h1.37l-.21.91h-1.37l-.92,4.17a1.76,1.76,0,0,0,0,.28c0,.41.22.63.67.63a1,1,0,0,0,.64-.22l.13.84a1.68,1.68,0,0,1-1,.32c-.94,0-1.54-.39-1.54-1.23A2.59,2.59,0,0,1,403.61,340.88Z"></path><path class="c" d="M409,335.57h1.05l-.24,1a3,3,0,0,1,2.52-1.18l-.24,1.08a2.07,2.07,0,0,0-.53-.06,2.64,2.64,0,0,0-2,1.11l-1.05,4.78h-1.05Z"></path><path class="c" d="M418.91,335.57H420l-1.5,6.77h-1l.21-1a2.81,2.81,0,0,1-2.23,1.13,2.52,2.52,0,0,1-2.62-2.79c0-2.2,1.36-4.31,3.54-4.31a2.68,2.68,0,0,1,2.35,1.23Zm-3.14,6a2.62,2.62,0,0,0,2.06-1.15l.67-3a2.29,2.29,0,0,0-2-1.09c-1.54,0-2.58,1.55-2.58,3.18A1.85,1.85,0,0,0,415.77,341.56Z"></path><path class="c" d="M421.44,340.88l1-4.4H421.3l.21-.91h1.12l.41-1.85h1.05l-.41,1.85h1.37l-.21.91h-1.37l-.92,4.17a1.76,1.76,0,0,0,0,.28c0,.41.22.63.67.63a1,1,0,0,0,.64-.22l.13.84a1.68,1.68,0,0,1-1,.32c-.94,0-1.54-.39-1.54-1.23A2.59,2.59,0,0,1,421.44,340.88Z"></path><path class="c" d="M426.87,335.57h1.05l-1.5,6.77h-1.05Zm1-2.55a.63.63,0,0,1,.64.62.81.81,0,0,1-.8.8.63.63,0,0,1-.64-.62A.81.81,0,0,1,427.87,333Z"></path><path class="c" d="M432.91,335.4a2.86,2.86,0,0,1,3.1,3,4,4,0,0,1-3.77,4.09,2.84,2.84,0,0,1-3.1-3A4,4,0,0,1,432.91,335.4Zm0,.94a2.93,2.93,0,0,0-2.63,3.12,1.91,1.91,0,0,0,2,2.1,2.93,2.93,0,0,0,2.63-3.12A1.91,1.91,0,0,0,432.88,336.34Z"></path><path class="c" d="M442.78,337.89a2.25,2.25,0,0,0,.08-.46c0-.79-.6-1.09-1.33-1.09a3.14,3.14,0,0,0-2.16,1.06l-1.09,4.93h-1.05l1.5-6.77h1.05l-.22,1a3.64,3.64,0,0,1,2.4-1.15c1.19,0,2,.59,2,1.68a2.66,2.66,0,0,1-.08.56l-1,4.69H441.8Z"></path><line class="d" x1="279.99" y1="233.53" x2="279.99" y2="398.61"></line><path class="c" d="M81.28,472.71c0,4.31-12.2,7.8-27.25,7.8s-27.27-3.49-27.27-7.8S39,464.92,54,464.92,81.28,468.39,81.28,472.71ZM54,484c-10.89,0-22.4-1.88-27.27-5.85v8.35c0,4.31,12.2,7.79,27.27,7.79s27.25-3.49,27.25-7.79v-8.35C76.42,482.08,64.92,484,54,484Zm0,13.54c-10.89,0-22.4-1.87-27.27-5.85V500c0,4.3,12.2,7.81,27.27,7.81s27.25-3.51,27.25-7.81v-8.36C76.42,495.62,64.92,497.5,54,497.5Zm0,13.56c-10.89,0-22.4-1.89-27.27-5.87v8.36c0,4.3,12.2,7.81,27.27,7.81s27.25-3.51,27.25-7.81v-8.36C76.42,509.17,64.92,511.06,54,511.06Z"></path><path class="e" d="M126,378.62v108.8a4,4,0,0,1-4,4H89.56"></path><polygon class="c" points="91.02 486.44 82.39 491.43 91.02 496.42 91.02 486.44"></polygon><line class="e" x1="245.21" y1="845.78" x2="314.34" y2="845.78"></line><path class="e" d="M498.3,595.22h61.57a4,4,0,0,0,4-4V203.1a4,4,0,0,0-4-4H410.24a4,4,0,0,0-4,4V246.7"></path><polygon class="c" points="401.25 245.24 406.24 253.87 411.23 245.24 401.25 245.24"></polygon><path class="d" d="M552.74,595.22h61.57a4,4,0,0,0,4-4v-540a4,4,0,0,0-4-4H410.24a4,4,0,0,0-4,4V80"></path><polygon class="c" points="401.25 78.55 406.24 87.18 411.23 78.55 401.25 78.55"></polygon><line class="e" x1="153.74" y1="378.62" x2="153.74" y2="632.41"></line><polygon class="c" points="148.75 630.95 153.74 639.59 158.73 630.95 148.75 630.95"></polygon><line class="e" x1="153.74" y1="140.41" x2="153.74" y2="246.01"></line><polygon class="c" points="148.75 244.55 153.74 253.18 158.73 244.55 148.75 244.55"></polygon><line class="e" x1="210.55" y1="208.38" x2="153.74" y2="208.38"></line><path class="e" d="M349.43,208.38h12.18a4,4,0,0,1,4,4v40.81"></path><line class="e" x1="406.24" y1="140.41" x2="406.24" y2="204.15"></line><path class="e" d="M181.36,378.62v108.8a4,4,0,0,0,4,4H402a4,4,0,0,1,4,4v137"></path><polygon class="c" points="400.98 630.95 405.96 639.59 410.95 630.95 400.98 630.95"></polygon><line class="e" x1="245.21" y1="845.78" x2="314.34" y2="904.38"></line><path class="c" d="M236.24,172.28A9.81,9.81,0,1,0,246,182.1,9.81,9.81,0,0,0,236.24,172.28Zm.82,9.81a.82.82,0,0,1-.82.82h-5.87a.82.82,0,1,1,0-1.63h5.05V175a.82.82,0,1,1,1.63,0Z"></path><line class="d" x1="153.74" y1="0.63" x2="153.74" y2="86.91"></line><line class="d" x1="405.97" y1="0.63" x2="405.97" y2="47.18"></line><path class="f" d="M365.61,255a33,33,0,0,0,.16,3.3"></path><path class="g" d="M366.61,262.88c2.65,9.83,10.3,15.54,19.32,15.54,9.7,0,17.81-6.59,19.83-17.81"></path><path class="f" d="M406.08,258.3a33,33,0,0,0,.16-3.3"></path></svg>