<svg xmlns:dc="http://purl.org/dc/elements/1.1/" xmlns:cc="http://creativecommons.org/ns#" xmlns:rdf="http://www.w3.org/1999/02/22-rdf-syntax-ns#" xmlns:svg="http://www.w3.org/2000/svg" xmlns="http://www.w3.org/2000/svg" xml:space="preserve" enable-background="new 0 0 595.28 841.89" viewBox="0 0 340 382.40044" height="412.82247" width="362.66666" y="0px" x="0px" id="Calque_1" version="1.1"><metadata id="metadata3280"><rdf:RDF><cc:Work rdf:about=""><dc:format>image/svg+xml</dc:format><dc:type rdf:resource="http://purl.org/dc/dcmitype/StillImage"/><dc:title/></cc:Work></rdf:RDF></metadata><defs id="defs3278"/><path style="fill:#c9781f" id="path3156" d="m 65.412121,155.07154 c 0,0 24.66784,-21.47409 97.677319,-21.47409 66.97804,0 85.80047,15.19398 104.91761,21.47409 l -99.73639,48.73542 z"/><g transform="matrix(0.63926204,0,0,0.63926204,-21.039129,-84.874827)" id="g3158"><path style="fill:#f6d2a2" id="path3160" d="m 118.946,476.458 c 0.707,14.572 15.264,7.83 21.858,3.274 6.259,-4.325 8.089,-0.73 8.638,-9.266 0.36,-5.61 1.007,-11.22 0.688,-16.853 -9.464,-0.858 -19.759,1.396 -27.518,7.033 -3.996,2.905 -11.49,12.174 -3.666,15.812"/><path style="fill:#c6b198" id="path3162" d="m 118.946,476.458 c 2.119,-0.788 4.364,-1.348 5.802,-3.264"/><path style="fill:#37abc8" id="path3164" d="M 152.588,302.861 C 96.804,287.174 138.284,216.207 183.08,245.397 Z"/><path style="fill:#37abc8" id="path3166" d="m 400.436,240.071 c 44.155,-31.014 84.056,38.959 32.74,56.565 z"/><path style="fill:#f6d2a2" id="path3168" d="m 409.934,655.8 c 11.216,6.94 31.716,27.923 14.891,38.098 -16.166,14.802 -25.214,-16.247 -39.403,-20.549 6.111,-8.298 13.856,-15.865 24.512,-17.549 z"/><path style="fill:none" id="path3170" d="m 424.825,693.897 c -2.494,-4.96 -3.332,-10.748 -7.496,-14.746"/><path style="fill:#f6d2a2" id="path3172" d="m 209.561,679.514 c -13.164,2.037 -20.574,13.914 -31.548,19.945 -10.341,6.166 -14.297,-1.974 -15.229,-3.627 -1.621,-0.739 -1.485,0.688 -3.987,-1.831 -9.587,-15.13 9.989,-26.189 20.182,-33.705 14.198,-2.871 23.096,9.438 30.582,19.218 z"/><path style="fill:none" id="path3174" d="m 162.785,695.831 c 0.501,-5.766 5.074,-9.628 7.251,-14.504"/><path style="fill:#077e91" id="path3176" d="m 154.916,283.26 c -7.36,-3.893 -12.759,-9.18 -8.257,-17.693 4.168,-7.88 11.911,-7.025 19.271,-3.132 z"/><path style="fill:#077e91" id="path3178" d="m 421.549,275.859 c 7.36,-3.893 12.759,-9.18 8.257,-17.693 -4.168,-7.881 -11.91,-7.025 -19.271,-3.132 z"/><path style="fill:#f6d2a2" id="path3180" d="m 472.21,474.607 c -0.707,14.572 -15.264,7.83 -21.858,3.274 -6.259,-4.325 -8.089,-0.73 -8.638,-9.265 -0.36,-5.61 -1.007,-11.22 -0.688,-16.853 9.464,-0.858 19.759,1.396 27.518,7.033 3.996,2.904 11.49,12.174 3.666,15.811"/><path style="fill:#c6b198" id="path3182" d="m 472.21,474.607 c -2.119,-0.788 -4.364,-1.348 -5.802,-3.264"/><g id="g3184"><path style="fill:#37abc8" id="path3186" d="m 289.988,210.595 c 55.847,0 108.2,7.987 135.492,61.642 24.496,60.141 15.785,124.993 19.521,188.553 3.208,54.577 10.322,117.629 -14.997,168.205 -26.635,53.21 -93.191,66.595 -148.026,64.634 -43.071,-1.541 -95.101,-15.593 -119.409,-54.944 -28.519,-46.165 -15.017,-114.81 -12.946,-166.179 2.454,-60.849 -16.482,-121.882 3.508,-181.425 20.737,-61.765 76.665,-75.724 136.857,-80.486"/></g><path style="fill:#ffffff" id="path3188" d="m 299.847,285.567 c 10.027,58.288 105.304,42.877 91.619,-15.91 -12.271,-52.716 -94.951,-38.124 -91.619,15.91"/><path style="fill:#ffffff" id="path3190" d="m 185.992,294.994 c 12.996,50.745 94.24,37.753 91.178,-13.149 -3.669,-60.964 -103.603,-49.2 -91.178,13.149"/><path style="fill:#ffffff" id="path3192" d="m 318.343,353.511 c 0.044,7.79 1.843,15.403 0.289,24.148 -1.935,3.656 -5.729,4.043 -9.001,5.52 -4.524,-0.71 -8.328,-3.68 -10.143,-7.912 -1.161,-9.202 0.433,-18.111 0.726,-27.316 z"/><g id="g3194"><ellipse id="ellipse3196" ry="14.86" rx="13.719" cy="286.71799" cx="208.39999"/><ellipse style="fill:#ffffff" id="ellipse3198" ry="3.777" rx="3.234" cy="290.07101" cx="214.64"/></g><g id="g3200"><ellipse id="ellipse3202" ry="14.86" rx="13.491" cy="283.017" cx="323.34799"/><ellipse style="fill:#ffffff" id="ellipse3204" ry="3.777" rx="3.181" cy="286.371" cx="329.48499"/></g><path style="fill:#ffffff" id="path3206" d="m 279.137,354.685 c -5.986,14.507 3.338,43.515 19.579,22.119 -1.161,-9.202 0.433,-18.111 0.726,-27.316 z"/><g id="g3208"><path style="fill:#f6d2a2" id="path3210" d="m 278.185,326.748 c -11.156,0.951 -20.276,14.216 -14.475,24.71 7.682,13.9 24.828,-1.23 35.507,0.188 12.291,0.252 22.361,12.996 32.233,2.304 10.979,-11.892 -4.727,-23.474 -17.002,-28.652 z"/></g></g><g transform="matrix(0.63926204,0,0,0.63926204,-21.039129,-84.874827)" id="g3212"><path style="fill:#ef9325" id="path3214" d="m 135.236,375.349 c 0,0 3.532,38.261 3.29,54.754 -0.242,16.492 15.56,6.079 16.38,32.016 0.82,25.937 -9.572,21.018 -15.047,33.713 -5.475,12.694 -9.196,72.145 -9.196,72.145 0,0 5.618,11.108 23.166,21.11 17.548,10.002 45.765,15.62 70.198,14.513 24.433,-1.107 41.885,-6.341 46.249,-9.236 4.363,-2.894 11.605,-12.05 14.329,-19.131 2.724,-7.081 8.415,-65.402 8.018,-98.775 -0.397,-33.373 -5.911,-64.166 -5.911,-64.166 z"/><path style="fill:#e5e5e5" id="path3216" d="m 290.007,537.841 c -71.952,8.032 -155.439,-14.172 -155.439,-14.172 0,0 1.226,-22.521 6.626,-30.447 74.833,23.185 150.329,15.834 150.329,15.834 1.12,10.514 0.331,18.872 -1.516,28.785 z"/><path style="fill:#e5e5e5" id="path3218" d="m 280.95,582.228 c -71.952,8.032 -150.287,-15.064 -150.287,-15.064 0,0 -0.251,-21.631 2.607,-31.13 74.833,23.185 154.763,17.407 154.763,17.407 -0.673,11.413 -2.278,22.646 -7.083,28.787 z"/></g><g transform="matrix(0.63926204,0,0,0.63926204,-21.039129,-84.874827)" id="g3220"><path style="fill:#ef9325" id="path3222" d="m 452.156,375.349 c 0,0 -0.488,38.261 -0.243,54.754 0.245,16.492 -9.578,6.079 -10.409,32.016 -0.831,25.937 9.692,21.018 15.236,33.713 5.544,12.694 9.312,72.145 9.312,72.145 0,0 -5.689,11.108 -23.457,21.11 -17.768,10.002 -46.34,15.62 -71.08,14.513 -24.74,-1.107 -42.411,-6.341 -46.83,-9.236 -4.419,-2.895 -11.751,-12.05 -14.509,-19.131 -2.758,-7.081 -8.521,-65.402 -8.119,-98.775 0.402,-33.373 5.985,-64.166 5.985,-64.166 z"/><path style="fill:#e5e5e5" id="path3224" d="m 304.706,537.841 c 72.856,8.032 157.392,-14.172 157.392,-14.172 0,0 -1.242,-22.521 -6.709,-30.447 -75.774,23.185 -152.218,15.834 -152.218,15.834 -1.134,10.514 -0.335,18.872 1.535,28.785 z"/><path style="fill:#e5e5e5" id="path3226" d="m 313.876,582.228 c 72.856,8.032 152.175,-15.064 152.175,-15.064 0,0 0.254,-21.631 -2.64,-31.13 -75.774,23.185 -156.707,17.407 -156.707,17.407 0.682,11.413 2.307,22.646 7.172,28.787 z"/></g><g transform="matrix(0.63926204,0,0,0.63926204,-21.039129,-84.874827)" id="g3228"><path style="fill:#d2e261" id="path3230" d="m 481.221,445.525 c -2.264,4.272 -6.745,6.334 -10.009,4.604 l -2.615,-1.385 c -3.264,-1.729 -4.076,-6.595 -1.812,-10.867 l 50.985,-96.234 c 2.263,-4.272 6.745,-6.334 10.009,-4.604 l 2.615,1.385 c 3.264,1.729 4.076,6.595 1.812,10.867 z"/><path id="path3232" d="m 457.143,490.972 c -1.319,2.489 -5.034,3.105 -8.298,1.375 l -2.615,-1.385 c -3.264,-1.729 -4.842,-5.149 -3.523,-7.638 l 23.92,-45.149 c 1.319,-2.489 5.034,-3.105 8.298,-1.375 l 2.615,1.385 c 3.264,1.729 4.842,5.149 3.523,7.638 z"/><path style="fill:#9b9b9b" id="path3234" d="m 478.411,436.54 -2.615,-1.385 c -3.264,-1.729 -6.604,-1.823 -7.459,-0.21 l -1.529,2.886 c 0.855,-1.614 4.194,-1.52 7.459,0.21 l 2.615,1.385 c 3.264,1.729 5.218,4.44 4.363,6.053 l 1.529,-2.886 c 0.855,-1.613 -1.099,-4.323 -4.363,-6.053 z"/></g><ellipse style="fill:#f6d2a2" id="ellipse3236" ry="8.6829996" rx="11.224" cy="462.66101" cx="456.83801" transform="matrix(0.59911638,0.2229746,-0.2229746,0.59911638,100.48325,-168.1724)"/><g transform="matrix(0.63926204,0,0,0.63926204,-21.039129,-84.874827)" id="g3238"><path style="fill:#d2e261" id="path3240" d="m 111.779,447.078 c 2.065,4.372 6.447,6.637 9.787,5.059 l 2.675,-1.264 c 3.34,-1.578 4.374,-6.401 2.309,-10.773 L 80.032,341.629 c -2.065,-4.372 -6.447,-6.637 -9.787,-5.059 l -2.675,1.264 c -3.34,1.578 -4.374,6.401 -2.309,10.773 z"/><path id="path3242" d="m 133.748,493.582 c 1.203,2.547 4.886,3.332 8.227,1.755 l 2.675,-1.264 c 3.34,-1.578 5.073,-4.922 3.869,-7.469 l -21.825,-46.199 c -1.203,-2.547 -4.886,-3.332 -8.227,-1.755 l -2.675,1.264 c -3.34,1.578 -5.073,4.922 -3.869,7.469 z"/><path style="fill:#9b9b9b" id="path3244" d="m 114.998,438.232 2.675,-1.264 c 3.34,-1.578 6.68,-1.519 7.46,0.132 l 1.395,2.954 c -0.78,-1.651 -4.12,-1.71 -7.46,-0.133 l -2.675,1.264 c -3.34,1.578 -5.416,4.196 -4.636,5.847 l -1.395,-2.954 c -0.779,-1.65 1.296,-4.268 4.636,-5.846 z"/></g><ellipse style="fill:#f6d2a2" id="ellipse3246" ry="8.6829996" rx="11.224" cy="463.922" cx="137.56" transform="matrix(-0.59911638,0.2229746,-0.2229746,-0.59911638,252.76813,458.95304)"/><g transform="matrix(0.63926204,0,0,0.63926204,-21.039129,-84.874827)" id="g3248"><g id="g3250"><path style="fill:#960000" id="path3252" d="m 159.132,324.732 c -2.218,4.033 -7.45,5.414 -11.687,3.084 l -4.873,-2.679 c -4.237,-2.33 -5.873,-7.488 -3.656,-11.521 l 50.714,-92.23 c 2.218,-4.033 7.45,-5.414 11.687,-3.084 l 4.873,2.679 c 4.237,2.33 5.33,6.689 3.656,11.521 -17.765,51.258 -50.714,92.23 -50.714,92.23 z"/><path style="fill:#595959" id="path3254" d="m 172.547,272.051 c 15.422,-28.047 25.555,-52.169 23.141,-54.905 l 0.057,-0.103 c -0.066,-0.036 -0.136,-0.06 -0.202,-0.096 -0.008,-0.005 -0.01,-0.021 -0.019,-0.026 l -0.007,0.014 c -23.699,-12.841 -55.583,-0.124 -71.334,28.522 -15.751,28.646 -9.41,62.381 14.128,75.514 l -0.007,0.014 c 0.009,0.005 0.023,-0.002 0.032,0.002 0.066,0.037 0.123,0.083 0.189,0.119 l 0.057,-0.103 c 3.602,0.573 18.543,-20.905 33.965,-48.952 z"/></g><g id="g3256"><path style="fill:#960000" id="path3258" d="m 426.693,324.925 c 2.1,4.095 7.291,5.627 11.593,3.42 l 4.948,-2.538 c 4.302,-2.206 6.087,-7.315 3.987,-11.41 L 399.19,220.742 c -2.1,-4.095 -7.291,-5.627 -11.593,-3.42 l -4.948,2.538 c -4.302,2.206 -5.521,6.533 -3.987,11.41 16.279,51.749 48.031,93.655 48.031,93.655 z"/><path style="fill:#595959" id="path3260" d="m 414.804,271.879 c -14.606,-28.48 -24.039,-52.885 -21.547,-55.55 l -0.054,-0.105 c 0.067,-0.034 0.138,-0.056 0.205,-0.09 0.009,-0.005 0.011,-0.021 0.02,-0.025 l 0.007,0.014 c 24.059,-12.152 55.563,1.48 70.481,30.569 14.918,29.089 7.606,62.627 -16.301,75.075 l 0.007,0.014 c -0.009,0.004 -0.023,-0.003 -0.032,10e-4 -0.067,0.035 -0.125,0.08 -0.192,0.114 l -0.054,-0.105 c -3.618,0.468 -17.934,-21.432 -32.54,-49.912 z"/></g><path style="fill:#353535" id="path3262" d="m 462.36,259.869 c 0,0 -17.746,-44.446 -38.326,-67.945 -20.58,-23.498 -221.937,-31.512 -255.003,0 -33.066,31.512 -45.533,67.945 -45.533,67.945 v -9.844 c 0,0 15.295,-43.268 45.533,-67.945 30.238,-24.677 228.946,-23.378 254.582,0 25.635,23.378 38.747,67.945 38.747,67.945 z"/><ellipse style="fill:#960000" id="ellipse3264" ry="16.975" rx="6.9489999" cy="248.211" cx="462.09201" transform="matrix(-0.8898,0.4563,-0.4563,-0.8898,986.5333,258.1984)"/><ellipse style="fill:#960000" id="ellipse3266" ry="16.975" rx="6.9489999" cy="247.02901" cx="125.962" transform="matrix(0.8763,0.4818,-0.4818,0.8763,134.6121,-30.1261)"/></g><g transform="matrix(0.63926204,0,0,0.63926204,-21.039129,-84.874827)" id="g3268"><path style="opacity:0.6;fill:#ffffff" id="path3270" d="M 386.49,250.492 H 349.285 319.791 274.555 249 198.68 c -33.72,0 -33.604,89.606 -1.945,94.771 l 65.466,-4.21 c 7.915,0 23.719,-30.655 26.684,-33.065 2.965,-2.41 12.729,-2.704 16.575,0 3.846,2.704 12.593,29.976 20.507,29.976 l 65.466,7.298 c 30.579,-14.072 22.87,-94.77 -4.943,-94.77 z"/><path style="opacity:0.5;fill:#ffffff" id="path3272" d="m 248.545,269.019 c -20.685,-0.462 -53.05,-0.274 -70.729,-0.13 -2.964,9.719 -6.269,22.024 -4.63,33.972 16.056,0 50.96,0.078 75.782,0.078 14.946,0 27.512,2.82 39.198,5.875 0.288,-0.368 0.53,-0.639 0.719,-0.792 2.965,-2.41 12.729,-2.704 16.575,0 0.995,0.7 2.323,3.058 3.874,6.149 5.967,1.258 11.943,2.127 18.153,2.205 16.915,0.214 56.557,0.146 82.066,0.074 3.249,-10.857 0.853,-22.495 0.125,-33.432 -24.906,0 -64.487,-0.562 -83.463,-0.562 -26.738,-0.001 -50.083,-12.821 -77.67,-13.437 z"/></g><path id="path3274" d="m 155.89646,123.63135 c -0.52803,-12.35565 23.02878,-13.90011 25.81085,-3.55813 2.77504,10.31833 -24.65122,12.71492 -25.81085,3.55813 -0.92565,-7.31124 0,0 0,0 z"/><g transform="matrix(0.16363642,0,0,0.16363643,2.8667513,26.432443)" id="g4788"><g transform="matrix(4.1803662,0,0,4.1803662,-117.56255,1825.0688)" style="font-style:normal;font-variant:normal;font-weight:normal;font-stretch:normal;font-size:40px;line-height:125%;font-family:'DejaVu Sans';-inkscape-font-specification:'DejaVu Sans';letter-spacing:0px;word-spacing:0px;display:inline;fill:#000000;fill-opacity:1;stroke:none" id="text3009"/></g></svg>